<?xml version="1.0" encoding="UTF-8"?>
<svg id="Ebene_1" data-name="Ebene 1" xmlns="http://www.w3.org/2000/svg" viewBox="0 0 4037 3173.61">
  <defs>
    <style>
      .cls-1, .cls-2, .cls-3 {
        opacity: .26;
      }

      .cls-1, .cls-4 {
        fill: #787877;
      }

      .cls-5 {
        fill: #f1c000;
      }

      .cls-6 {
        fill: #4d3837;
      }

      .cls-2, .cls-7 {
        fill: #a7a7a5;
      }

      .cls-7, .cls-8, .cls-4 {
        opacity: .16;
      }

      .cls-9 {
        fill: #c8cc00;
      }

      .cls-10 {
        fill: #5b4241;
      }

      .cls-8, .cls-3 {
        fill: #6a6a69;
      }

      .cls-11 {
        fill: #babe00;
      }

      .cls-12 {
        fill: #ffcb00;
      }

      .cls-13 {
        fill: #d9de00;
      }
    </style>
  </defs>
  <g>
    <path class="cls-11" d="M813.96,141.46c1.66,.75,3.28,1.64,4.96,2.4,17.09,7.74,26.83-11.92,50.18-1.35,8.32,3.77,15.63,9.85,23.83,13.57,26.9,12.18,41.07-11.44,71.82-34.3-1.44,4.12-3.1,7.67-4.86,10.43-97.75,138.1-123.03,297.23-100.38,463.3-34.45,17.61-66.33,60.4-127.06,32.89-42.9-19.43-62.48-64.09-95.16-96.68-15.16-15.11-33.62-26.71-51.98-38.59,67.62-67.51,123.84-110.08,137.09-124.38,40.82-44.08,21.74-209.13,11.46-255.5-.13-.59-.24-1.18-.34-1.76,10.61,10.12,22.24,17.92,34.11,23.3,26.48,11.99,33.3,.77,46.34,6.68Z"/>
    <path class="cls-5" d="M1314.18,2664.99c-514.08-269.36-946.96-971.18-1014.41-1455.34-45.57-327.1,144.7-575.92,285.53-716.52,18.36,11.88,36.83,23.48,51.98,38.59,32.68,32.59,52.26,77.24,95.16,96.68,60.73,27.51,92.61-15.28,127.06-32.89,51.19,375.15,347.11,785.67,605.49,1068.95,372.76,408.68,1261.36,633.92,1452.12,730.76,190.76,96.84,291.22,277.9,291.22,277.9l1.3,89.22c-656.6,448.16-1381.36,172-1895.44-97.36Z"/>
    <path class="cls-6" d="M830.33,17.22c1.09-.62,2.13-1.23,3.13-1.82,1-.59,1.94-1.17,2.84-1.73,135.51-18.63,141.77,69.87,128.43,108.11-30.74,22.86-44.92,46.48-71.82,34.3-8.2-3.71-15.51-9.8-23.83-13.57-19.43-8.8-29.44,3.33-42.1,3.19h0s0,0,0,0c-1.24-.01-2.51-.15-3.81-.43-.1-.02-.21-.05-.31-.07-.51-.12-1.03-.26-1.55-.43-.16-.05-.32-.1-.48-.15-.63-.22-1.27-.46-1.93-.76-1.68-.76-3.3-1.65-4.96-2.4-13.04-5.91-19.86,5.32-46.34-6.68-3.59-1.63-7.15-3.5-10.67-5.56-3.38-1.98-6.72-4.16-10-6.54-1.32-.96-2.63-1.95-3.93-2.97-3.24-2.55-6.43-5.28-9.52-8.23h0s0,0,0,0c-7.32-42.65,64.21-75.58,96.83-94.27Z"/>
    <path class="cls-8" d="M733.5,111.49c10.61,10.12,22.24,17.92,34.11,23.3,26.48,11.99,33.3,.77,46.34,6.68,1.66,.75,3.28,1.64,4.96,2.4,2.87,1.3,5.52,1.81,8.08,1.84-6.92,54.95-16.18,113.63-28.09,176.32-173.32,912.11,381.95,1424.33,766.46,1807.05,303.5,302.09,1227.31,446.64,1613.75,498.97,19.37,27.34,29.22,45.08,29.22,45.08l1.3,89.22c-656.6,448.16-1381.36,172-1895.44-97.36-514.08-269.36-946.96-971.18-1014.41-1455.34-45.57-327.1,144.7-575.92,285.53-716.52,67.62-67.51,123.84-110.08,137.09-124.38,40.82-44.08,21.74-209.13,11.46-255.5-.13-.59-.24-1.18-.34-1.76Z"/>
    <path class="cls-3" d="M714.05,1878.91c414.3,669.37,1325,907.8,1660,996.97,227.05,60.44,611.13-61.86,835.08-146.96,.14,9.43,.3,20.43,.48,33.31-656.6,448.16-1381.36,172-1895.44-97.36-514.08-269.36-946.96-971.18-1014.41-1455.34-33.41-239.81,59.95-437.55,167.65-581.41-34.37,215.62-70.99,737.58,246.65,1250.78Z"/>
    <path class="cls-6" d="M3147.88,2677.67c.13-.32,6.54-14.43,6.68-14.75,5.55-12.25,5.84-50.33,14.58-46.37,18.95,11.26,50.06,51.31,44.14,86.78-1.97,11.78,6.58,34.25-.64,52.55-5.4,13.68-20.58,22.96-32.72,25.9-1.21,.29-16.76,11.69-16.58,10-25.4-11.5-19.66-65.55-19.14-71.14,1.37-14.87-2.28-28.7,3.69-42.96Z"/>
  </g>
  <g>
    <path class="cls-9" d="M838.47,152.93c1.82,.09,3.65,.32,5.49,.41,18.74,.92,20.57-20.95,46.17-19.69,9.12,.45,18.15,3.42,27.14,3.86,29.49,1.45,34-25.73,54.19-58.29,.18,4.36-.07,8.27-.69,11.48-40.17,164.36-5.21,321.65,76.88,467.77-25.57,29.03-39.49,80.55-106.08,77.28-47.04-2.31-81.66-36.65-124.03-54.95-19.65-8.49-41.08-12.49-62.53-16.79,38.08-87.64,74.73-147.89,81.79-166.05,21.77-55.99-56.63-202.49-83.23-241.84-.34-.5-.65-1.01-.96-1.52,13.59,5.52,27.27,8.5,40.29,9.13,29.03,1.43,31.25-11.52,45.55-10.82Z"/>
    <path class="cls-12" d="M2230.96,2316.12c-577.09-61.62-1237.57-555.28-1478.21-980.78-162.58-287.47-77.04-588.8,2.27-771.31,21.44,4.3,42.88,8.31,62.53,16.79,42.37,18.3,76.99,52.64,124.03,54.95,66.59,3.27,80.51-48.24,106.08-77.28,185.45,330.1,611.52,603.16,955.92,771.69,496.85,243.12,1406.05,126.09,1619.05,146.06,213,19.97,372.97,151.45,372.97,151.45l33.99,82.5c-446,658.07-1221.53,667.54-1798.62,605.93Z"/>
    <path class="cls-10" d="M808.04,31.37c.78-.98,1.53-1.93,2.24-2.84,.71-.92,1.38-1.8,2.01-2.65,119.18-67.11,157.52,12.89,159.17,53.36-20.19,32.56-24.7,59.73-54.19,58.29-8.99-.44-18.02-3.42-27.14-3.86-21.31-1.05-26.16,13.91-37.98,18.44h0s0,0,0,0c-1.16,.44-2.38,.79-3.7,1-.1,.02-.21,.03-.31,.05-.52,.08-1.05,.13-1.6,.17-.17,.01-.33,.02-.5,.03-.67,.03-1.35,.04-2.07,0-1.84-.09-3.67-.33-5.49-.41-14.3-.7-16.52,12.24-45.55,10.82-3.93-.19-7.93-.63-11.97-1.25-3.87-.6-7.77-1.4-11.7-2.41-1.58-.41-3.16-.85-4.74-1.32-3.95-1.18-7.92-2.55-11.88-4.15h0s0,0,0,0c-22.48-36.97,31.95-93.89,55.41-123.25Z"/>
    <path class="cls-4" d="M752.63,154.62c13.59,5.52,27.27,8.5,40.29,9.13,29.03,1.43,31.25-11.52,45.55-10.82,1.82,.09,3.65,.32,5.49,.41,3.14,.15,5.8-.34,8.19-1.25,13.75,53.65,26.7,111.63,38.66,174.31,173.95,911.99,878.59,1184.34,1376.84,1399,393.27,169.44,1305.57-35.57,1684.21-128.91,28.06,18.31,43.74,31.19,43.74,31.19l33.99,82.5c-446,658.07-1221.53,667.54-1798.62,605.93-577.09-61.62-1237.57-555.28-1478.21-980.78-162.58-287.47-77.04-588.8,2.27-771.31,38.08-87.64,74.73-147.89,81.79-166.05,21.77-55.99-56.63-202.49-83.23-241.84-.34-.5-.65-1.01-.96-1.52Z"/>
    <path class="cls-1" d="M1383.97,1805.54c631.27,470.32,1565.87,357.43,1910.21,317.27,233.38-27.22,545.65-282.09,722.66-443.53,3.59,8.72,7.78,18.9,12.69,30.8-446,658.07-1221.53,667.54-1798.62,605.93-577.09-61.62-1237.57-555.28-1478.21-980.78-119.19-210.76-105.02-428.97-57.72-602.34,47.26,213.17,205,712.07,688.99,1072.66Z"/>
    <path class="cls-10" d="M3918.6,1641.01c-.18-.44-8.05-20.27-8.23-20.72-6.83-17.21-39.84-56.71-30.32-59.83,22.98-4.01,79.5,11.65,106.33,53.11,8.9,13.76,34.43,29.89,45.38,54.72,8.18,18.55,5.74,40.64-.13,53.67-.58,1.3-26.28,26.44-27.63,24.56-27.66,9.07-45.97-51.97-50.49-58.16-12.02-16.46-26.61-27.71-34.91-47.34Z"/>
  </g>
  <g>
    <path class="cls-13" d="M782.95,141.24c1.09,1.28,2.1,2.65,3.2,3.94,11.22,13.16,25.23,2.12,40.56,20.09,5.46,6.4,9.38,14.16,14.76,20.48,17.65,20.71,36.47,8.5,68.3,3.85-2.46,2.57-4.91,4.6-7.19,5.98-121.92,65.13-192.54,176.97-227,314.33-33.13-.96-72.18,18.56-112.04-28.19-28.16-33.03-29.68-75.64-45.49-114.49-7.34-18.01-18.43-34.72-29.36-51.6,75.46-23.49,133.92-32.58,149.03-38,46.61-16.73,83.62-151.82,90.08-191.83,.08-.51,.18-1.01,.29-1.5,5.28,12.26,12.11,23.16,19.9,32.3,17.38,20.38,26.39,14.62,34.95,24.65Z"/>
    <path class="cls-12" d="M383.86,2294.28C58,1870.45-65.97,1147.94,33.4,746.88,100.54,475.92,331.52,364.54,488.69,315.62c10.92,16.88,22.02,33.58,29.36,51.6,15.82,38.85,17.33,81.46,45.49,114.49,39.86,46.75,78.91,27.24,112.04,28.19-77.87,310.31,28.81,750.92,145.76,1077.78,168.71,471.55,808.11,1019.15,930.01,1174.03,121.91,154.87,144.92,336.55,144.92,336.55l-27.22,69.22c-667.09,68.42-1159.32-449.38-1485.18-873.2Z"/>
    <path class="cls-10" d="M835.39,52.51c1.07-.02,2.09-.05,3.08-.09,.98-.04,1.92-.08,2.82-.13,114.28,42.73,91.26,113.49,68.48,137.3-31.83,4.65-50.65,16.86-68.3-3.85-5.38-6.31-9.3-14.07-14.76-20.48-12.76-14.96-24.6-9.83-34.68-15.28h0s0,0,0,0c-.99-.53-1.96-1.17-2.91-1.93-.07-.06-.15-.12-.22-.19-.37-.31-.74-.64-1.11-.99-.11-.11-.22-.21-.33-.32-.44-.44-.87-.89-1.3-1.4-1.1-1.29-2.11-2.66-3.2-3.94-8.56-10.04-17.57-4.27-34.95-24.65-2.36-2.76-4.61-5.7-6.77-8.77-2.08-2.95-4.06-6.03-5.92-9.24-.75-1.29-1.48-2.61-2.2-3.94-1.79-3.33-3.47-6.77-5.01-10.34h0s0,0,0,0c7.65-35.91,75.29-31.13,107.3-31.78Z"/>
    <path class="cls-7" d="M728.09,84.29c5.28,12.26,12.11,23.16,19.9,32.3,17.38,20.38,26.39,14.62,34.95,24.65,1.09,1.28,2.1,2.65,3.2,3.94,1.88,2.21,3.84,3.72,5.88,4.82-22.94,39.38-48.93,80.65-78.31,123.88-427.48,629.06-145.58,1257.17,40.76,1713.69,147.08,360.34,840.18,860.67,1132.7,1063.69,6.84,29.2,9.09,47,9.09,47l-27.22,69.22c-667.09,68.42-1159.32-449.38-1485.18-873.2C58,1870.45-65.97,1147.94,33.4,746.88,100.54,475.92,331.52,364.54,488.69,315.62c75.46-23.49,133.92-32.57,149.04-38,46.61-16.73,83.62-151.82,90.08-191.83,.08-.51,.18-1.01,.29-1.5Z"/>
    <path class="cls-2" d="M152.81,1436.48c119.38,689.7,772.27,1256.76,1011.97,1466.49,162.46,142.15,508.39,209.76,714.45,238.58-2.88,7.31-6.23,15.85-10.16,25.84-667.09,68.42-1159.32-449.38-1485.18-873.2C58.03,1870.35-65.95,1147.85,33.43,746.78c49.22-198.66,186.51-311.54,318.21-376.91C255.87,521.36,61.28,907.69,152.81,1436.48Z"/>
    <path class="cls-6" d="M1831.55,3076.91c.29-.19,13.89-8.49,14.19-8.67,11.79-7.2,29.21-36.84,37.33-30.02,16.43,16.91,33.71,61.52,11.09,86.72-7.51,8.36-7.91,29.58-24.31,40.8-12.26,8.38-33.63,9.14-48.7,6.25-1.5-.29-24.24,1.97-23.29,.72-23.62-19.86,7.14-59.64,10.23-63.8,8.22-11.04,10.29-23.41,23.46-32.01Z"/>
  </g>
  <g>
    <path d="M1244.45,1166.4c7.71,9.04,18.3,24.65,28.2,41.76,14.12,24.39,20.08,43.34,17.83,62.9-1.15,15.73-8.9,30.87-25.34,42.87-20.08,14.73-47.41,14.91-69.17-.39-.22,.14-.44,.28-.66,.42,6.32,21.99,4.51,55.5-30.11,76.38-20.18,12.03-40.86,13.93-59.72,9.94-25.09-6-47.79-25.99-66.52-60.5-10.19-18.82-15.78-34.01-18.66-43.82,83.16-37.84,158.04-81.5,224.15-129.56Zm-186.71,145.49c1.65,5.82,5.4,13.77,10.74,23.37,15.33,27.89,44.29,47.27,78.64,27.38,32.02-18.81,28.9-50.18,13.1-78.24-4.04-7.12-7.95-14.25-11.75-21.4-28.96,17.08-59.21,33.4-90.72,48.88Zm112.78-62.19c4.14,7.76,8.42,15.5,12.85,23.23,15.52,27.05,41.87,32.45,62.1,18.01,24.67-17.61,22.33-41.57,7.99-66.42-6.53-11.33-10.96-17.22-14.03-20.56-22.04,15.74-45.01,31.01-68.9,45.75Z"/>
    <path d="M1222.23,1452.49c-29.67,8.8-60.21,16.84-91.61,24.05-6.93-9.11-13.68-18.25-20.25-27.44,99.71-20.98,190.91-50.44,272.72-86.23,8.29,9.28,16.83,18.48,25.62,27.61-43.97,77.09-95.05,152.62-153.14,225.97-9.17-8.85-18.15-17.77-26.93-26.74,18.74-22.76,36.78-45.75,54.13-68.95-21.46-22.39-41.64-45.17-60.53-68.27Zm78.35,47.31c15.43-21.37,30.28-42.91,44.54-64.6,9.7-14.77,19.16-27.28,28.1-39.62-.16-.18-.33-.36-.49-.53-14.14,7.25-29.12,14.29-44.91,20.56-25.37,9.57-51.5,18.56-78.39,26.92,16.12,19.34,33.17,38.45,51.14,57.27Z"/>
    <path d="M1285.52,1644.48c80.34-52.74,151.41-110.11,212.87-170.65,9.31,7.76,18.83,15.45,28.53,23.05-8.76,48.42-18.37,96.79-28.81,145.1-7.27,33.56-16.24,62.25-27.62,88.59,.35,.08,.71,.16,1.06,.23,27.04-25.99,52.55-48.73,84-77.99,28.08-26.22,54.48-53.01,79.16-80.26,9.53,6,19.2,11.92,29.01,17.76-58.48,66.05-126.76,129.54-204.6,189.01-11.05-7.36-21.92-14.8-32.63-22.33,13.7-47.88,26.52-95.85,38.47-143.91,7.84-31.64,16.59-63.33,26.98-91.3-.4-.16-.8-.31-1.2-.47-22.82,24.01-46.26,45.99-82.02,74.66-30.74,24.53-63.21,48.36-97.38,71.35-8.76-7.56-17.36-15.17-25.81-22.84Z"/>
    <path d="M1631.01,1781.83c-31.54,15.4-64.08,30.13-97.59,44.12-12.04-7.12-23.91-14.33-35.6-21.65,107.04-42.23,204.31-92.12,291.13-147.54,13.99,6.59,28.21,13.03,42.64,19.31-23.96,84.77-55.17,169.42-93.63,253.29-14.3-6.13-28.42-12.4-42.36-18.79,12.62-26.15,24.53-52.38,35.71-78.68-34.62-15.89-68.06-32.61-100.3-50.07Zm113.03,25.75c9.77-24.12,18.95-48.29,27.52-72.49,5.82-16.47,12.34-30.77,18.37-44.79-.27-.13-.54-.25-.82-.38-14.45,10.56-29.91,21.09-46.53,31.03-26.92,15.49-54.7,30.47-83.34,44.89,27.41,14.47,55.68,28.4,84.8,41.73Z"/>
    <path d="M1784.22,1948.5c73.15-70.13,136.36-143.37,189.5-218.28,14.29,4.72,28.75,9.3,43.39,13.72,6.76,48.53,12.69,97.19,17.79,145.98,3.52,33.9,3.33,63.63-.44,91.74,.45-.02,.89-.05,1.34-.07,22.38-32.07,44.42-60.76,71.71-97.61,24.35-32.99,46.92-66.3,67.71-99.8,13.63,2.85,27.38,5.58,41.25,8.18-48.97,81.1-108.15,161.15-177.5,238.68-15.63-3.99-31.12-8.13-46.45-12.41-1.75-49.08-4.37-98.07-7.86-146.95-2.33-32.17-3.5-64.66-1.17-94.13-.55-.04-1.09-.07-1.64-.11-18.89,29.19-39.04,56.52-70.85,93.25-27.36,31.46-56.55,62.48-87.56,92.95-13.21-4.94-26.28-9.99-39.22-15.14Z"/>
    <path d="M2242.16,1985.15c-32,23.88-65.13,47.16-99.38,69.79-16.63-3.42-33.1-7-49.43-10.74,110.07-69.53,208.97-145.91,296.24-227.01,18.95,1.92,38.09,3.61,57.4,5.05-2.62,89.82-12.42,180.93-29.52,272.7-18.73-1.66-37.31-3.51-55.74-5.56,5.96-28.7,11.19-57.35,15.7-85.93-46.07-4.88-91.18-11.01-135.27-18.3Zm142.31-8.87c3.66-26.11,6.72-52.16,9.17-78.12,1.65-17.66,4.91-33.49,7.71-48.91-.37-.04-.73-.07-1.1-.11-14.01,14.74-29.15,29.7-45.79,44.36-27.14,23.16-55.25,45.88-84.32,68.11,37.4,5.75,75.51,10.66,114.33,14.66Z"/>
  </g>
</svg>