<?xml version="1.0" encoding="UTF-8"?>
<svg id="Layer_1" data-name="Layer 1" xmlns="http://www.w3.org/2000/svg" viewBox="0 0 668.77 438.97">
  <defs>
    <style>
      .cls-1 {
        fill: #fff;
      }

      .cls-1, .cls-2, .cls-3, .cls-4, .cls-5, .cls-6 {
        stroke-miterlimit: 10;
      }

      .cls-1, .cls-3 {
        stroke-width: 12px;
      }

      .cls-1, .cls-3, .cls-5 {
        stroke: #000;
      }

      .cls-2, .cls-4, .cls-5 {
        stroke-width: 32px;
      }

      .cls-2, .cls-4, .cls-6 {
        stroke: #99adcc;
      }

      .cls-7, .cls-3 {
        fill: #99adcc;
      }

      .cls-4 {
        fill: none;
      }

      .cls-8 {
        font-family: FranklinGothic-Heavy, 'Franklin Gothic Heavy';
        font-size: 96px;
        font-weight: 800;
      }

      .cls-5 {
        fill: #13294b;
      }

      .cls-6 {
        stroke-width: 44px;
      }

      .cls-9 {
        fill: #f2f2f2;
      }
    </style>
  </defs>
  <polygon class="cls-9" points="213.56 241.49 128.4 241.49 85.83 315.23 128.4 388.97 213.56 388.97 256.13 315.23 213.56 241.49"/>
  <polygon class="cls-1" points="281.53 123.74 226.26 219.49 115.7 219.49 60.43 315.23 115.7 410.97 226.26 410.97 281.53 315.23 392.09 315.23 447.37 219.49 392.09 123.74 281.53 123.74"/>
  <polygon class="cls-9" points="213.56 241.49 128.4 241.49 85.83 315.23 128.4 388.97 213.56 388.97 256.13 315.23 213.56 241.49"/>
  <polygon class="cls-9" points="379.39 145.74 294.24 145.74 251.66 219.49 294.24 293.23 379.39 293.23 421.96 219.49 379.39 145.74"/>
  <path class="cls-3" d="M238.96,432.97H103l-67.98-117.74,67.98-117.74h110.55l55.28-95.74h135.96l67.98,117.74-67.98,117.74h-110.55l-55.28,95.74Zm-110.55-44h85.15l55.28-95.74h110.55l42.58-73.74-42.58-73.74h-85.15l-55.28,95.74h-110.55l-42.58,73.74,42.58,73.74Z"/>
  <polygon class="cls-9" points="545.22 241.49 460.07 241.49 417.49 315.23 460.07 388.97 545.22 388.97 587.8 315.23 545.22 241.49"/>
  <polygon class="cls-9" points="545.22 50 460.07 50 417.49 123.74 460.07 197.49 545.22 197.49 587.8 123.74 545.22 50"/>
  <polygon class="cls-1" points="557.92 219.49 613.2 123.74 557.92 28 447.37 28 392.09 123.74 447.37 219.49 447.37 219.49 392.09 315.23 447.37 410.97 557.92 410.97 613.2 315.23 557.92 219.49 557.92 219.49"/>
  <polygon class="cls-9" points="545.22 241.49 460.07 241.49 417.49 315.23 460.07 388.97 545.22 388.97 587.8 315.23 545.22 241.49"/>
  <polygon class="cls-9" points="545.22 50 460.07 50 417.49 123.74 460.07 197.49 545.22 197.49 587.8 123.74 545.22 50"/>
  <path class="cls-3" d="M570.62,432.97h-135.96l-67.98-117.74,55.28-95.74-55.28-95.74L434.67,6h135.96l67.98,117.74-55.28,95.74,55.28,95.74-67.98,117.74Zm-110.55-44h85.15l42.58-73.74-55.28-95.74,55.28-95.74-42.58-73.74h-85.15l-42.58,73.74,55.28,95.74-55.28,95.74,42.58,73.74Z"/>
  <line class="cls-6" x1="115.7" y1="219.49" x2="60.43" y2="123.74"/>
  <rect class="cls-3" x="66.06" y="116.34" width="44" height="110.55" transform="translate(-74.01 67.02) rotate(-30)"/>
  <line class="cls-1" x1="226.26" y1="219.49" x2="281.53" y2="315.23"/>
  <rect class="cls-3" x="231.9" y="212.08" width="44" height="110.55" transform="translate(-99.66 162.77) rotate(-30)"/>
  <line class="cls-1" x1="447.37" y1="219.49" x2="557.92" y2="219.49"/>
  <rect class="cls-3" x="447.37" y="197.49" width="110.55" height="44"/>
  <polygon class="cls-4" points="557.92 219.49 613.2 123.74 557.92 28 447.37 28 392.09 123.74 447.37 219.49 447.37 219.49 392.09 315.23 447.37 410.97 557.92 410.97 613.2 315.23 557.92 219.49 557.92 219.49"/>
  <polygon class="cls-4" points="226.26 219.49 115.7 219.49 60.43 315.23 115.7 410.97 226.26 410.97 281.53 315.23 281.53 315.23 392.09 315.23 447.37 219.49 392.09 123.74 281.53 123.74 226.26 219.49 226.26 219.49"/>
  <line class="cls-4" x1="281.53" y1="315.23" x2="226.26" y2="219.49"/>
  <text class="cls-8" transform="translate(131.08 351.11)"><tspan x="0" y="0">M</tspan></text>
  <text class="cls-8" transform="translate(296.27 253.59)"><tspan x="0" y="0">M</tspan></text>
  <text class="cls-8" transform="translate(477.32 351.11)"><tspan x="0" y="0">L</tspan></text>
  <g>
    <circle class="cls-5" cx="608.35" cy="315.23" r="44.43"/>
    <path class="cls-7" d="M608.35,365.66c-27.8,0-50.43-22.62-50.43-50.43s22.62-50.43,50.43-50.43,50.43,22.62,50.43,50.43-22.62,50.43-50.43,50.43Zm0-88.85c-21.19,0-38.43,17.24-38.43,38.43s17.24,38.43,38.43,38.43,38.43-17.24,38.43-38.43-17.24-38.43-38.43-38.43Z"/>
  </g>
  <g>
    <circle class="cls-5" cx="60.43" cy="315.23" r="44.43"/>
    <path class="cls-7" d="M60.43,365.66c-27.8,0-50.43-22.62-50.43-50.43s22.62-50.43,50.43-50.43,50.43,22.62,50.43,50.43-22.62,50.43-50.43,50.43Zm0-88.85c-21.19,0-38.43,17.24-38.43,38.43s17.24,38.43,38.43,38.43,38.43-17.24,38.43-38.43-17.24-38.43-38.43-38.43Z"/>
  </g>
  <g>
    <circle class="cls-5" cx="392.09" cy="123.74" r="44.43"/>
    <path class="cls-7" d="M392.09,174.17c-27.8,0-50.43-22.62-50.43-50.43s22.62-50.43,50.43-50.43,50.43,22.62,50.43,50.43-22.62,50.43-50.43,50.43Zm0-88.85c-21.19,0-38.43,17.24-38.43,38.43s17.24,38.43,38.43,38.43,38.43-17.24,38.43-38.43-17.24-38.43-38.43-38.43Z"/>
  </g>
  <line class="cls-2" x1="301.83" y1="123.74" x2="347.66" y2="123.74"/>
  <line class="cls-2" x1="446.31" y1="217.66" x2="413.85" y2="161.45"/>
  <line class="cls-2" x1="590.38" y1="275.7" x2="557.92" y2="219.49"/>
  <line class="cls-2" x1="115.08" y1="409.87" x2="82.62" y2="353.66"/>
  <line class="cls-2" x1="115.7" y1="219.49" x2="83.25" y2="275.7"/>
  <line class="cls-2" x1="590.38" y1="354.76" x2="557.92" y2="410.97"/>
  <line class="cls-2" x1="446.74" y1="29.1" x2="414.29" y2="85.32"/>
</svg>