<?xml version="1.0" encoding="UTF-8"?>
<svg id="Layer_1" data-name="Layer 1" xmlns="http://www.w3.org/2000/svg" viewBox="0 0 1199.49 562.21">
  <defs>
    <style>
      .cls-1, .cls-2 {
        fill: #fff;
      }

      .cls-1, .cls-3, .cls-4, .cls-5, .cls-6, .cls-7 {
        stroke-miterlimit: 10;
      }

      .cls-1, .cls-4 {
        stroke-width: 12px;
      }

      .cls-1, .cls-4, .cls-6 {
        stroke: #000;
      }

      .cls-3, .cls-5, .cls-6 {
        stroke-width: 32px;
      }

      .cls-3, .cls-5, .cls-7 {
        stroke: #99adcc;
      }

      .cls-8, .cls-4 {
        fill: #99adcc;
      }

      .cls-5 {
        fill: none;
      }

      .cls-9 {
        font-size: 90px;
      }

      .cls-9, .cls-10, .cls-11 {
        font-family: FranklinGothic-Heavy, 'Franklin Gothic Heavy';
        font-weight: 800;
      }

      .cls-10 {
        font-size: 200px;
      }

      .cls-11 {
        font-size: 96px;
      }

      .cls-6 {
        fill: #13294b;
      }

      .cls-7 {
        stroke-width: 44px;
      }

      .cls-12 {
        fill: #f2f2f2;
      }
    </style>
  </defs>
  <rect class="cls-2" width="1199.49" height="562.21"/>
  <g>
    <polygon class="cls-12" points="693.04 309.06 607.89 309.06 565.31 382.8 607.89 456.55 693.04 456.55 735.62 382.8 693.04 309.06"/>
    <polygon class="cls-1" points="761.02 191.32 705.74 287.06 595.19 287.06 539.91 382.8 595.19 478.55 705.74 478.55 761.02 382.8 871.57 382.8 926.85 287.06 871.57 191.32 761.02 191.32"/>
    <polygon class="cls-12" points="693.04 309.06 607.89 309.06 565.31 382.8 607.89 456.55 693.04 456.55 735.62 382.8 693.04 309.06"/>
    <polygon class="cls-12" points="858.87 213.32 773.72 213.32 731.14 287.06 773.72 360.8 858.87 360.8 901.45 287.06 858.87 213.32"/>
    <path class="cls-4" d="M718.44,500.55h-135.96l-67.98-117.74,67.98-117.74h110.55l55.28-95.74h135.96l67.98,117.74-67.98,117.74h-110.55l-55.28,95.74Zm-110.55-44h85.15l55.28-95.74h110.55l42.58-73.74-42.58-73.74h-85.15l-55.28,95.74h-110.55l-42.58,73.74,42.58,73.74Z"/>
    <polygon class="cls-12" points="1024.7 309.06 939.55 309.06 896.98 382.8 939.55 456.55 1024.7 456.55 1067.28 382.8 1024.7 309.06"/>
    <polygon class="cls-12" points="1024.7 117.57 939.55 117.57 896.98 191.32 939.55 265.06 1024.7 265.06 1067.28 191.32 1024.7 117.57"/>
    <polygon class="cls-1" points="1037.41 287.06 1092.68 191.32 1037.41 95.57 926.85 95.57 871.57 191.32 926.85 287.06 926.85 287.06 871.57 382.8 926.85 478.55 1037.41 478.55 1092.68 382.8 1037.41 287.06 1037.41 287.06"/>
    <polygon class="cls-12" points="1024.7 309.06 939.55 309.06 896.98 382.8 939.55 456.55 1024.7 456.55 1067.28 382.8 1024.7 309.06"/>
    <polygon class="cls-12" points="1024.7 117.57 939.55 117.57 896.98 191.32 939.55 265.06 1024.7 265.06 1067.28 191.32 1024.7 117.57"/>
    <path class="cls-4" d="M1050.11,500.55h-135.96l-67.98-117.74,55.28-95.74-55.28-95.74,67.98-117.74h135.96l67.98,117.74-55.28,95.74,55.28,95.74-67.98,117.74Zm-110.55-44h85.15l42.58-73.74-55.28-95.74,55.28-95.74-42.58-73.74h-85.15l-42.58,73.74,55.28,95.74-55.28,95.74,42.58,73.74Z"/>
    <line class="cls-7" x1="595.19" y1="287.06" x2="539.91" y2="191.32"/>
    <rect class="cls-4" x="545.55" y="183.91" width="44" height="110.55" transform="translate(-43.56 315.82) rotate(-30)"/>
    <line class="cls-1" x1="705.74" y1="287.06" x2="761.02" y2="382.8"/>
    <rect class="cls-4" x="711.38" y="279.65" width="44" height="110.55" transform="translate(-69.21 411.56) rotate(-30)"/>
    <line class="cls-1" x1="926.85" y1="287.06" x2="1037.41" y2="287.06"/>
    <rect class="cls-4" x="926.85" y="265.06" width="110.55" height="44"/>
    <polygon class="cls-5" points="1037.41 287.06 1092.68 191.32 1037.41 95.57 926.85 95.57 871.57 191.32 926.85 287.06 926.85 287.06 871.57 382.8 926.85 478.55 1037.41 478.55 1092.68 382.8 1037.41 287.06 1037.41 287.06"/>
    <polygon class="cls-5" points="705.74 287.06 595.19 287.06 539.91 382.8 595.19 478.55 705.74 478.55 761.02 382.8 761.02 382.8 871.57 382.8 926.85 287.06 871.57 191.32 761.02 191.32 705.74 287.06 705.74 287.06"/>
    <line class="cls-5" x1="761.02" y1="382.8" x2="705.74" y2="287.06"/>
    <text class="cls-11" transform="translate(610.57 418.68)"><tspan x="0" y="0">M</tspan></text>
    <text class="cls-11" transform="translate(775.75 321.16)"><tspan x="0" y="0">M</tspan></text>
    <text class="cls-11" transform="translate(956.8 418.68)"><tspan x="0" y="0">L</tspan></text>
    <g>
      <circle class="cls-6" cx="1087.83" cy="382.8" r="44.43"/>
      <path class="cls-8" d="M1087.83,433.23c-27.8,0-50.43-22.62-50.43-50.43s22.62-50.43,50.43-50.43,50.43,22.62,50.43,50.43-22.62,50.43-50.43,50.43Zm0-88.85c-21.19,0-38.43,17.24-38.43,38.43s17.24,38.43,38.43,38.43,38.43-17.24,38.43-38.43-17.24-38.43-38.43-38.43Z"/>
    </g>
    <g>
      <circle class="cls-6" cx="539.91" cy="382.8" r="44.43"/>
      <path class="cls-8" d="M539.91,433.23c-27.8,0-50.43-22.62-50.43-50.43s22.62-50.43,50.43-50.43,50.43,22.62,50.43,50.43-22.62,50.43-50.43,50.43Zm0-88.85c-21.19,0-38.43,17.24-38.43,38.43s17.24,38.43,38.43,38.43,38.43-17.24,38.43-38.43-17.24-38.43-38.43-38.43Z"/>
    </g>
    <g>
      <circle class="cls-6" cx="871.57" cy="191.32" r="44.43"/>
      <path class="cls-8" d="M871.57,241.74c-27.8,0-50.43-22.62-50.43-50.43s22.62-50.43,50.43-50.43,50.43,22.62,50.43,50.43-22.62,50.43-50.43,50.43Zm0-88.85c-21.19,0-38.43,17.24-38.43,38.43s17.24,38.43,38.43,38.43,38.43-17.24,38.43-38.43-17.24-38.43-38.43-38.43Z"/>
    </g>
    <line class="cls-3" x1="781.32" y1="191.32" x2="827.15" y2="191.32"/>
    <line class="cls-3" x1="925.79" y1="285.24" x2="893.33" y2="229.02"/>
    <line class="cls-3" x1="1069.86" y1="343.27" x2="1037.41" y2="287.06"/>
    <line class="cls-3" x1="594.56" y1="477.44" x2="562.11" y2="421.23"/>
    <line class="cls-3" x1="595.19" y1="287.06" x2="562.73" y2="343.28"/>
    <line class="cls-3" x1="1069.86" y1="422.33" x2="1037.41" y2="478.55"/>
    <line class="cls-3" x1="926.23" y1="96.67" x2="893.77" y2="152.89"/>
    <text class="cls-10" transform="translate(72.33 462.12)"><tspan x="0" y="0">LAB</tspan></text>
    <text class="cls-9" transform="translate(42.25 168.22)"><tspan x="0" y="0">Molecular</tspan><tspan x="14.81" y="108">Modeling</tspan></text>
  </g>
</svg>