<svg id="Layer_1" data-name="Layer 1" xmlns="http://www.w3.org/2000/svg" viewBox="0 0 668.77 438.97"><defs><style>.cls-1{fill:#f2f2f2;}.cls-2,.cls-5{fill:#fff;}.cls-2,.cls-3,.cls-8,.cls-9{stroke:#000;}.cls-11,.cls-2,.cls-3,.cls-4,.cls-5,.cls-6,.cls-8,.cls-9{stroke-miterlimit:10;}.cls-2,.cls-3,.cls-5{stroke-width:12px;}.cls-10,.cls-3{fill:#99adcc;}.cls-11,.cls-4,.cls-5,.cls-6{stroke:#99adcc;}.cls-4{stroke-width:44px;}.cls-6{fill:none;}.cls-11,.cls-6,.cls-9{stroke-width:32px;}.cls-7{font-size:96px;}.cls-12,.cls-7{font-family:FranklinGothic-Heavy, Franklin Gothic Heavy;font-weight:800;}.cls-9{fill:#13294b;}.cls-12{font-size:36px;}.cls-13{font-size:60px;}</style></defs><polygon class="cls-1" points="213.56 241.49 128.41 241.49 85.83 315.23 128.41 388.97 213.56 388.97 256.13 315.23 213.56 241.49"/><polygon class="cls-2" points="281.54 123.74 226.26 219.49 115.7 219.49 60.43 315.23 115.7 410.97 226.26 410.97 281.54 315.23 392.09 315.23 447.37 219.49 392.09 123.74 281.54 123.74"/><polygon class="cls-1" points="213.56 241.49 128.41 241.49 85.83 315.23 128.41 388.97 213.56 388.97 256.13 315.23 213.56 241.49"/><polygon class="cls-1" points="379.39 145.74 294.24 145.74 251.66 219.49 294.24 293.23 379.39 293.23 421.96 219.49 379.39 145.74"/><path class="cls-3" d="M292.57,483.42h-136l-68-117.74,68-117.74H267.16l55.28-95.75h136l68,117.75-68,117.74H347.84ZM182,439.42h85.15l55.28-95.74H433l42.58-73.74L433,196.19H347.84l-55.27,95.75H182l-42.57,73.74Z" transform="translate(-53.61 -50.45)"/><polygon class="cls-1" points="545.22 241.49 460.07 241.49 417.49 315.23 460.07 388.97 545.22 388.97 587.8 315.23 545.22 241.49"/><polygon class="cls-1" points="545.22 50 460.07 50 417.49 123.74 460.07 197.49 545.22 197.49 587.8 123.74 545.22 50"/><polygon class="cls-2" points="557.92 219.49 613.2 123.74 557.92 28 447.37 28 392.09 123.74 447.37 219.49 447.37 219.49 392.09 315.23 447.37 410.97 557.92 410.97 613.2 315.23 557.92 219.49 557.92 219.49"/><polygon class="cls-1" points="545.22 241.49 460.07 241.49 417.49 315.23 460.07 388.97 545.22 388.97 587.8 315.23 545.22 241.49"/><polygon class="cls-1" points="545.22 50 460.07 50 417.49 123.74 460.07 197.49 545.22 197.49 587.8 123.74 545.22 50"/><path class="cls-3" d="M624.23,483.42h-136l-68-117.74,55.28-95.74-55.28-95.75,68-117.74h136l68,117.74-55.28,95.75,55.28,95.74Zm-110.55-44h85.15l42.57-73.74-55.28-95.74,55.28-95.75-42.57-73.74H513.68L471.1,174.19l55.28,95.75L471.1,365.68Z" transform="translate(-53.61 -50.45)"/><line class="cls-4" x1="115.7" y1="219.49" x2="60.43" y2="123.74"/><rect class="cls-3" x="119.67" y="166.79" width="44" height="110.55" transform="translate(-145.66 50.14) rotate(-30)"/><line class="cls-2" x1="226.26" y1="219.49" x2="281.53" y2="315.23"/><rect class="cls-3" x="285.5" y="262.53" width="44" height="110.55" transform="translate(-171.31 145.88) rotate(-30)"/><line class="cls-2" x1="447.37" y1="219.49" x2="557.92" y2="219.49"/><rect class="cls-3" x="447.37" y="197.49" width="110.55" height="44"/><path class="cls-5" d="M267.16,247.94" transform="translate(-53.61 -50.45)"/><path class="cls-5" d="M267.16,247.94" transform="translate(-53.61 -50.45)"/><polygon class="cls-6" points="557.92 219.49 613.2 123.74 557.92 28 447.37 28 392.09 123.74 447.37 219.49 447.37 219.49 392.09 315.23 447.37 410.97 557.92 410.97 613.2 315.23 557.92 219.49 557.92 219.49"/><polygon class="cls-6" points="226.26 219.49 115.7 219.49 60.42 315.23 115.7 410.97 226.26 410.97 281.54 315.23 281.54 315.23 392.09 315.23 447.37 219.49 392.09 123.74 281.54 123.74 226.26 219.49 226.26 219.49"/><line class="cls-6" x1="281.53" y1="315.23" x2="226.26" y2="219.49"/><text class="cls-7" transform="translate(131.08 351.11)">M</text><text class="cls-7" transform="translate(296.27 253.59)">M</text><text class="cls-7" transform="translate(477.32 351.11)">L</text><path d="M169.31,269.94" transform="translate(-53.61 -50.45)"/><path class="cls-8" d="M237.85,56.83" transform="translate(-53.61 -50.45)"/><circle class="cls-9" cx="608.35" cy="315.23" r="44.43"/><path class="cls-10" d="M662,416.1a50.43,50.43,0,1,1,50.43-50.42A50.48,50.48,0,0,1,662,416.1Zm0-88.85a38.43,38.43,0,1,0,38.43,38.43A38.47,38.47,0,0,0,662,327.25Z" transform="translate(-53.61 -50.45)"/><circle class="cls-9" cx="60.43" cy="315.23" r="44.43"/><path class="cls-10" d="M114,416.1a50.43,50.43,0,1,1,50.43-50.42A50.48,50.48,0,0,1,114,416.1Zm0-88.85a38.43,38.43,0,1,0,38.43,38.43A38.47,38.47,0,0,0,114,327.25Z" transform="translate(-53.61 -50.45)"/><circle class="cls-9" cx="392.09" cy="123.74" r="44.43"/><path class="cls-10" d="M445.7,224.62a50.43,50.43,0,1,1,50.42-50.43A50.48,50.48,0,0,1,445.7,224.62Zm0-88.85a38.43,38.43,0,1,0,38.42,38.42A38.47,38.47,0,0,0,445.7,135.77Z" transform="translate(-53.61 -50.45)"/><line class="cls-11" x1="301.83" y1="123.74" x2="347.66" y2="123.74"/><line class="cls-11" x1="446.31" y1="217.66" x2="413.85" y2="161.45"/><line class="cls-11" x1="590.38" y1="275.7" x2="557.92" y2="219.49"/><line class="cls-11" x1="115.08" y1="409.87" x2="82.62" y2="353.66"/><line class="cls-11" x1="115.7" y1="219.49" x2="83.25" y2="275.7"/><line class="cls-11" x1="590.38" y1="354.76" x2="557.92" y2="410.97"/><text x="-53.61" y="-50.45"/><line class="cls-11" x1="446.74" y1="29.1" x2="414.29" y2="85.32"/><text class="cls-12" transform="translate(51.89 45)">Molecular Modeling<tspan x="0" y="72" xml:space="preserve">       </tspan><tspan class="cls-13" x="63" y="72">LAB</tspan></text></svg>