<?xml version="1.0" encoding="UTF-8"?>
<svg id="Layer_1" data-name="Layer 1" xmlns="http://www.w3.org/2000/svg" viewBox="0 0 318.46 314.67">
  <defs>
    <style>
      .cls-1 {
        fill: #fff;
      }

      .cls-2 {
        stroke: #fff;
      }

      .cls-2, .cls-3 {
        fill: none;
        stroke-miterlimit: 10;
      }

      .cls-3 {
        stroke: #000;
        stroke-width: .52px;
      }

      .cls-4 {
        font-family: FranklinGothic-Demi, 'Franklin Gothic Demi';
        font-size: 36px;
        font-weight: 300;
      }

      .cls-5 {
        letter-spacing: -.02em;
      }

      .cls-6 {
        fill-rule: evenodd;
      }
    </style>
  </defs>
  <rect class="cls-1" width="318.46" height="314.67"/>
  <g>
    <path d="M255.33,81.28c0,26-21.08,47.08-47.08,47.08s-47.08-21.08-47.08-47.08,21.08-47.08,47.08-47.08,47.08,21.08,47.08,47.08h0Z"/>
    <path d="M213,35.42c-5.34-7.22,.76-16.52,.76-16.52h-5.45s-.06,0-.06,0h-5.51s6.1,9.3,.76,16.52c-5.11,6.91,3.96,.6,4.75,.04,.79,.56,9.86,6.87,4.75-.04h0Z"/>
    <path class="cls-1" d="M213.87,18.9c0,.89-2.49,1.61-5.56,1.61s-5.56-.72-5.56-1.61,2.49-1.61,5.56-1.61,5.56,.72,5.56,1.61h0Z"/>
    <path class="cls-3" d="M213.87,18.9c0,.89-2.49,1.61-5.56,1.61s-5.56-.72-5.56-1.61,2.49-1.61,5.56-1.61,5.56,.72,5.56,1.61h0Z"/>
    <path d="M213,127.13c-5.34,7.23,.76,16.52,.76,16.52h-11.02s6.1-9.3,.76-16.52c-5.11-6.91,3.96-.6,4.75-.04,.79-.56,9.86-6.87,4.75,.04h0Z"/>
    <path class="cls-1" d="M213.87,142.49c0-1.3-2.49-2.36-5.56-2.36s-5.56,1.06-5.56,2.36,2.49,2.36,5.56,2.36,5.56-1.06,5.56-2.36h0Z"/>
    <path class="cls-3" d="M213.87,142.49c0-1.3-2.49-2.36-5.56-2.36s-5.56,1.06-5.56,2.36,2.49,2.36,5.56,2.36,5.56-1.06,5.56-2.36h0Z"/>
    <path d="M203.11,42.58c-7.03-5.6-3.54-16.16-3.54-16.16l-5.27,1.41h-.05s-.05,.03-.05,.03h0l-5.27,1.41s8.3,7.4,5.01,15.76c-3.15,8,3.98-.45,4.6-1.19,.91,.33,11.3,4.09,4.57-1.27h0Z"/>
    <path class="cls-1" d="M200.02,27.66c.39,1.46-1.7,3.29-4.67,4.08-2.97,.8-5.69,.26-6.08-1.2-.39-1.46,1.7-3.29,4.67-4.08,2.97-.8,5.69-.26,6.08,1.2h0Z"/>
    <path class="cls-3" d="M200.02,27.66c.39,1.46-1.7,3.29-4.67,4.08-2.97,.8-5.69,.26-6.08-1.2-.39-1.46,1.7-3.29,4.67-4.08,2.97-.8,5.69-.26,6.08,1.2h0Z"/>
    <path d="M222.2,114.65c-3.29,8.36,5.01,15.76,5.01,15.76l-5.27,1.41h-.05s-.05,.03-.05,.03h0l-5.27,1.41s3.49-10.56-3.54-16.15c-6.73-5.36,3.67-1.6,4.57-1.27,.62-.74,7.74-9.19,4.6-1.19h0Z"/>
    <path class="cls-1" d="M227.32,130.38c-.23-.86-2.82-.91-5.79-.11-2.97,.79-5.19,2.13-4.96,2.99,.23,.86,2.82,.91,5.79,.11,2.97-.79,5.19-2.13,4.96-2.99h0Z"/>
    <path class="cls-3" d="M227.32,130.38c-.23-.86-2.82-.91-5.79-.11-2.97,.79-5.19,2.13-4.96,2.99,.23,.86,2.82,.91,5.79,.11,2.97-.79,5.19-2.13,4.96-2.99h0Z"/>
    <path d="M187.27,51.75c-8.89-1.33-11.14-12.22-11.14-12.22l-3.86,3.86h0l-.04,.04-.04,.04h0l-3.86,3.86s10.89,2.26,12.22,11.14c1.27,8.5,3.22-2.38,3.38-3.33,.95-.17,11.83-2.11,3.33-3.38h0Z"/>
    <path class="cls-1" d="M175.99,39.24c.53,.53-.81,2.72-2.98,4.89s-4.36,3.51-4.89,2.98c-.53-.53,.81-2.72,2.98-4.89,2.17-2.17,4.36-3.51,4.89-2.98h0Z"/>
    <path class="cls-3" d="M175.99,39.24c.53,.53-.81,2.72-2.98,4.89s-4.36,3.51-4.89,2.98c-.53-.53,.81-2.72,2.98-4.89,2.17-2.17,4.36-3.51,4.89-2.98h0Z"/>
    <path d="M240.71,106.97c1.33,8.89,12.22,11.14,12.22,11.14l-3.86,3.86h0l-.04,.04-.04,.04h0l-3.86,3.86s-2.26-10.89-11.14-12.22c-8.5-1.27,2.38-3.22,3.33-3.38,.16-.95,2.11-11.83,3.38-3.33h0Z"/>
    <path class="cls-1" d="M253.01,118.04c-.63-.63-2.9,.63-5.07,2.8-2.17,2.17-3.43,4.44-2.8,5.07,.63,.63,2.9-.63,5.07-2.8,2.17-2.17,3.43-4.44,2.8-5.07h0Z"/>
    <path class="cls-3" d="M253.01,118.04c-.63-.63-2.9,.63-5.07,2.8-2.17,2.17-3.43,4.44-2.8,5.07,.63,.63,2.9-.63,5.07-2.8,2.17-2.17,3.43-4.44,2.8-5.07h0Z"/>
    <path d="M176.27,67.52c-8.36,3.29-15.76-5.01-15.76-5.01l-1.41,5.27h0v.05s-.03,.05-.03,.05h0l-1.41,5.27s10.56-3.49,16.16,3.54c5.36,6.73,1.6-3.67,1.27-4.57,.74-.62,9.19-7.74,1.19-4.6h0Z"/>
    <path class="cls-1" d="M160.54,62.4c.86,.23,.91,2.82,.11,5.79-.8,2.97-2.13,5.19-2.99,4.96-.86-.23-.91-2.82-.11-5.79,.8-2.97,2.13-5.19,2.99-4.96h0Z"/>
    <path class="cls-3" d="M160.54,62.4c.86,.23,.91,2.82,.11,5.79-.8,2.97-2.13,5.19-2.99,4.96-.86-.23-.91-2.82-.11-5.79,.8-2.97,2.13-5.19,2.99-4.96h0Z"/>
    <path d="M243.58,86.61c5.6,7.03,16.16,3.54,16.16,3.54l-1.41,5.27h0v.05s-.03,.05-.03,.05h0l-1.41,5.27s-7.4-8.3-15.76-5.01c-8,3.15,.45-3.98,1.19-4.6-.33-.91-4.09-11.3,1.27-4.57h0Z"/>
    <path class="cls-1" d="M259.3,89.91c-1.08-.29-2.6,1.88-3.39,4.85-.79,2.97-.57,5.61,.51,5.9,1.08,.29,2.6-1.88,3.39-4.85,.79-2.97,.57-5.61-.51-5.9h0Z"/>
    <path class="cls-3" d="M259.3,89.91c-1.08-.29-2.6,1.88-3.39,4.85-.79,2.97-.57,5.61,.51,5.9,1.08,.29,2.6-1.88,3.39-4.85,.79-2.97,.57-5.61-.51-5.9h0Z"/>
    <path d="M173.67,86.07c-5.6,7.03-16.16,3.54-16.16,3.54l1.41,5.27h0v.05s.03,.05,.03,.05h0l1.41,5.27s7.4-8.3,15.76-5.01c8,3.15-.45-3.98-1.19-4.6,.33-.91,4.09-11.3-1.27-4.57h0Z"/>
    <path class="cls-1" d="M158.19,89.31c1.19-.32,2.81,1.83,3.6,4.79,.8,2.97,.47,5.63-.72,5.95-1.19,.32-2.81-1.83-3.6-4.8-.8-2.97-.47-5.63,.72-5.95h0Z"/>
    <path class="cls-3" d="M158.19,89.31c1.19-.32,2.81,1.83,3.6,4.79,.8,2.97,.47,5.63-.72,5.95-1.19,.32-2.81-1.83-3.6-4.8-.8-2.97-.47-5.63,.72-5.95h0Z"/>
    <path d="M240.79,67.46c8.36,3.29,15.76-5.01,15.76-5.01l1.41,5.27h0v.05s.03,.05,.03,.05h0l1.41,5.27s-10.56-3.49-16.16,3.54c-5.35,6.73-1.6-3.67-1.27-4.57-.74-.62-9.19-7.74-1.19-4.59h0Z"/>
    <path class="cls-1" d="M256.22,62.56c-.51,.14-.28,2.65,.52,5.62,.79,2.97,1.85,5.26,2.36,5.13,.51-.14,.28-2.65-.52-5.62-.79-2.97-1.85-5.26-2.36-5.13h0Z"/>
    <path class="cls-3" d="M256.22,62.56c-.51,.14-.28,2.65,.52,5.62,.79,2.97,1.85,5.26,2.36,5.13,.51-.14,.28-2.65-.52-5.62-.79-2.97-1.85-5.26-2.36-5.13h0Z"/>
    <path d="M177.63,104.48c-1.33,8.89-12.22,11.14-12.22,11.14l3.86,3.86h0l.04,.04,.04,.04h0l3.86,3.86s2.26-10.89,11.14-12.22c8.5-1.27-2.38-3.22-3.33-3.38-.17-.95-2.11-11.83-3.38-3.33h0Z"/>
    <path class="cls-1" d="M165.33,115.54c.63-.63,2.9,.63,5.07,2.8,2.17,2.17,3.43,4.44,2.8,5.07-.63,.63-2.9-.63-5.07-2.8-2.17-2.17-3.43-4.44-2.8-5.07h0Z"/>
    <path class="cls-3" d="M165.33,115.54c.63-.63,2.9,.63,5.07,2.8,2.17,2.17,3.43,4.44,2.8,5.07-.63,.63-2.9-.63-5.07-2.8-2.17-2.17-3.43-4.44-2.8-5.07h0Z"/>
    <path d="M233.92,51.63c8.89-1.33,11.14-12.22,11.14-12.22l3.86,3.86h0l.04,.04,.04,.04h0l3.86,3.86s-10.89,2.26-12.22,11.14c-1.27,8.5-3.22-2.38-3.38-3.33-.95-.16-11.83-2.11-3.33-3.38h0Z"/>
    <path class="cls-1" d="M244.31,39.99c-.94,.94,.05,3.47,2.22,5.64,2.17,2.17,4.7,3.17,5.65,2.22,.94-.94-.05-3.47-2.22-5.64-2.17-2.17-4.7-3.17-5.65-2.22h0Z"/>
    <path class="cls-3" d="M244.31,39.99c-.94,.94,.05,3.47,2.22,5.64,2.17,2.17,4.7,3.17,5.65,2.22,.94-.94-.05-3.47-2.22-5.64-2.17-2.17-4.7-3.17-5.65-2.22h0Z"/>
    <path d="M193.92,113.61c3.29,8.36-5.01,15.76-5.01,15.76l5.27,1.41h.05s.05,.03,.05,.03h0l5.27,1.41s-3.49-10.56,3.54-16.15c6.73-5.36-3.67-1.6-4.57-1.27-.62-.74-7.74-9.19-4.6-1.19h0Z"/>
    <path class="cls-1" d="M189.04,128.46c.34-1.27,3.02-1.66,5.99-.87,2.97,.79,5.1,2.47,4.76,3.75-.34,1.27-3.02,1.66-5.99,.87-2.97-.79-5.1-2.47-4.76-3.75h0Z"/>
    <path class="cls-3" d="M189.04,128.46c.34-1.27,3.02-1.66,5.99-.87,2.97,.79,5.1,2.47,4.76,3.75-.34,1.27-3.02,1.66-5.99,.87-2.97-.79-5.1-2.47-4.76-3.75h0Z"/>
    <path d="M213.02,46.39c7.03-5.6,3.54-16.16,3.54-16.16l5.27,1.41h.05s.05,.03,.05,.03h0l5.27,1.41s-8.3,7.4-5.01,15.76c3.15,8-3.98-.45-4.6-1.19-.91,.33-11.3,4.09-4.58-1.27h0Z"/>
    <path class="cls-1" d="M216.46,30.2c-.23,.86,1.99,2.2,4.96,2.99,2.97,.8,5.56,.75,5.79-.11,.23-.86-1.99-2.2-4.96-2.99-2.97-.8-5.56-.75-5.79,.11h0Z"/>
    <path class="cls-3" d="M216.46,30.2c-.23,.86,1.99,2.2,4.96,2.99,2.97,.8,5.56,.75,5.79-.11,.23-.86-1.99-2.2-4.96-2.99-2.97-.8-5.56-.75-5.79,.11h0Z"/>
    <path d="M189.44,39.19c-8.24-3.59-7.6-14.69-7.6-14.69l-4.72,2.73h0l-.05,.03-.05,.03h0l-4.72,2.73s9.93,5,8.92,13.93c-.97,8.54,3.72-1.46,4.13-2.34,.96,.09,11.97,1.02,4.09-2.41h0Z"/>
    <path class="cls-1" d="M181.93,24.45c.44,.77-1.35,2.64-4.02,4.17-2.66,1.54-5.18,2.16-5.62,1.39-.44-.77,1.35-2.64,4.02-4.17,2.66-1.54,5.18-2.16,5.62-1.39h0Z"/>
    <path class="cls-3" d="M181.93,24.45c.44,.77-1.35,2.64-4.02,4.17-2.66,1.54-5.18,2.16-5.62,1.39-.44-.77,1.35-2.64,4.02-4.17,2.66-1.54,5.18-2.16,5.62-1.39h0Z"/>
    <path d="M235.29,118.61c-1.01,8.93,8.92,13.93,8.92,13.93l-4.72,2.73h0l-.05,.03-.05,.03h0l-4.72,2.73s.64-11.1-7.6-14.69c-7.88-3.43,3.13-2.49,4.09-2.41,.41-.88,5.1-10.88,4.13-2.34h0Z"/>
    <path class="cls-1" d="M244.31,132.48c-.44-.77-2.96-.14-5.62,1.39-2.66,1.54-4.46,3.4-4.02,4.17,.44,.77,2.96,.14,5.62-1.39,2.66-1.54,4.46-3.4,4.02-4.17h0Z"/>
    <path class="cls-3" d="M244.31,132.48c-.44-.77-2.96-.14-5.62,1.39-2.66,1.54-4.46,3.4-4.02,4.17,.44,.77,2.96,.14,5.62-1.39,2.66-1.54,4.46-3.4,4.02-4.17h0Z"/>
    <path d="M170.92,54.24c-8.93,1.01-13.93-8.92-13.93-8.92l-2.73,4.72h0l-.03,.05-.03,.05h0l-2.73,4.72s11.1-.64,14.69,7.6c3.43,7.88,2.49-3.13,2.41-4.09,.88-.41,10.88-5.1,2.34-4.13h0Z"/>
    <path class="cls-1" d="M157.05,45.22c.77,.44,.14,2.96-1.39,5.62-1.54,2.66-3.4,4.46-4.17,4.02-.77-.44-.14-2.96,1.39-5.62,1.54-2.66,3.4-4.46,4.17-4.02h0Z"/>
    <path class="cls-3" d="M157.05,45.22c.77,.44,.14,2.96-1.39,5.62-1.54,2.66-3.4,4.46-4.17,4.02-.77-.44-.14-2.96,1.39-5.62,1.54-2.66,3.4-4.46,4.17-4.02h0Z"/>
    <path d="M250.34,100.09c3.59,8.24,14.69,7.6,14.69,7.6l-2.73,4.72h0l-.03,.05-.03,.05h0l-2.73,4.72s-5-9.93-13.93-8.92c-8.54,.97,1.46-3.72,2.34-4.13-.09-.96-1.02-11.97,2.41-4.09h0Z"/>
    <path class="cls-1" d="M265.08,107.59c-.77-.44-2.64,1.35-4.17,4.02-1.54,2.66-2.16,5.18-1.39,5.62,.77,.44,2.64-1.35,4.17-4.02,1.54-2.66,2.16-5.18,1.39-5.62h0Z"/>
    <path class="cls-3" d="M265.08,107.59c-.77-.44-2.64,1.35-4.17,4.02-1.54,2.66-2.16,5.18-1.39,5.62,.77,.44,2.64-1.35,4.17-4.02,1.54-2.66,2.16-5.18,1.39-5.62h0Z"/>
    <path d="M162.4,76.53c-7.22,5.34-16.52-.76-16.52-.76v5.45h0v.11h0v5.45s9.3-6.1,16.52-.76c6.91,5.11,.6-3.96,.04-4.75,.56-.79,6.87-9.86-.04-4.75h0Z"/>
    <path class="cls-1" d="M146.86,75.66c1.24,0,2.24,2.49,2.24,5.56s-1,5.56-2.24,5.56-2.24-2.49-2.24-5.56c0-3.07,1-5.56,2.24-5.56h0Z"/>
    <path class="cls-3" d="M146.86,75.66c1.24,0,2.24,2.49,2.24,5.56s-1,5.56-2.24,5.56-2.24-2.49-2.24-5.56c0-3.07,1-5.56,2.24-5.56h0Z"/>
    <path d="M254.1,76.53c7.23,5.34,16.52-.76,16.52-.76v5.45h0v.11h0v5.45s-9.3-6.1-16.52-.76c-6.91,5.11-.6-3.96-.04-4.75-.56-.79-6.87-9.86,.04-4.75h0Z"/>
    <path class="cls-1" d="M270.63,75.66c-.89,0-1.61,2.49-1.61,5.56s.72,5.56,1.61,5.56,1.61-2.49,1.6-5.56c0-3.07-.72-5.56-1.6-5.56h0Z"/>
    <path class="cls-3" d="M270.63,75.66c-.89,0-1.61,2.49-1.61,5.56s.72,5.56,1.61,5.56,1.61-2.49,1.6-5.56c0-3.07-.72-5.56-1.6-5.56h0Z"/>
    <path d="M166.17,100.09c-3.59,8.24-14.69,7.6-14.69,7.6l2.73,4.72h0l.03,.05,.03,.05h0l2.73,4.72s5-9.93,13.93-8.92c8.54,.97-1.46-3.72-2.34-4.13,.09-.96,1.02-11.97-2.41-4.09h0Z"/>
    <path class="cls-1" d="M151.43,107.59c.77-.44,2.64,1.35,4.17,4.02,1.54,2.66,2.16,5.18,1.39,5.62s-2.64-1.35-4.17-4.02c-1.54-2.66-2.16-5.18-1.39-5.62h0Z"/>
    <path class="cls-3" d="M151.43,107.59c.77-.44,2.64,1.35,4.17,4.02,1.54,2.66,2.16,5.18,1.39,5.62s-2.64-1.35-4.17-4.02c-1.54-2.66-2.16-5.18-1.39-5.62h0Z"/>
    <path d="M245.59,54.24c8.93,1.01,13.93-8.92,13.93-8.92l2.73,4.72h0l.03,.05,.03,.05h0l2.73,4.72s-11.1-.64-14.69,7.6c-3.43,7.88-2.5-3.13-2.41-4.09-.88-.41-10.88-5.1-2.34-4.13h0Z"/>
    <path class="cls-1" d="M258.83,45.59c-.99,.57-.55,3.2,.98,5.86,1.54,2.66,3.59,4.35,4.58,3.78,.99-.57,.55-3.2-.98-5.86-1.54-2.66-3.59-4.35-4.58-3.78h0Z"/>
    <path class="cls-3" d="M258.83,45.59c-.99,.57-.55,3.2,.98,5.86,1.54,2.66,3.59,4.35,4.58,3.78,.99-.57,.55-3.2-.98-5.86-1.54-2.66-3.59-4.35-4.58-3.78h0Z"/>
    <path d="M181.22,118.61c1.01,8.93-8.92,13.93-8.92,13.93l4.72,2.73h0l.05,.03,.05,.03h0l4.72,2.73s-.64-11.1,7.6-14.69c7.88-3.43-3.13-2.49-4.09-2.41-.41-.88-5.1-10.88-4.13-2.34h0Z"/>
    <path class="cls-1" d="M172.2,132.48c.44-.77,2.96-.14,5.62,1.39,2.66,1.54,4.46,3.4,4.02,4.17-.44,.77-2.96,.14-5.62-1.39-2.66-1.54-4.46-3.4-4.02-4.17h0Z"/>
    <path class="cls-3" d="M172.2,132.48c.44-.77,2.96-.14,5.62,1.39,2.66,1.54,4.46,3.4,4.02,4.17-.44,.77-2.96,.14-5.62-1.39-2.66-1.54-4.46-3.4-4.02-4.17h0Z"/>
    <path d="M227.07,39.19c8.24-3.59,7.6-14.69,7.6-14.69l4.72,2.73h0l.05,.03,.05,.03h0l4.72,2.73s-9.93,5-8.92,13.93c.97,8.54-3.72-1.46-4.13-2.34-.96,.09-11.97,1.02-4.09-2.41h0Z"/>
    <path class="cls-1" d="M234.57,24.45c-.44,.77,1.35,2.64,4.02,4.17,2.66,1.54,5.18,2.16,5.62,1.39,.44-.77-1.35-2.64-4.02-4.17-2.66-1.54-5.18-2.16-5.62-1.39h0Z"/>
    <path class="cls-3" d="M234.57,24.45c-.44,.77,1.35,2.64,4.02,4.17,2.66,1.54,5.18,2.16,5.62,1.39,.44-.77-1.35-2.64-4.02-4.17-2.66-1.54-5.18-2.16-5.62-1.39h0Z"/>
    <path class="cls-1" d="M227.1,63.58c-.77,1.97-3.71,2.67-6.55,1.56-2.84-1.11-4.52-3.62-3.75-5.59,.77-1.97,3.71-2.67,6.55-1.56s4.52,3.62,3.75,5.59h0Z"/>
    <path class="cls-1" d="M199.45,112.21c-.77,1.97-3.71,2.67-6.55,1.56-2.84-1.11-4.52-3.62-3.75-5.59s3.71-2.67,6.55-1.56c2.84,1.11,4.52,3.62,3.75,5.59h0Z"/>
    <path class="cls-1" d="M187.46,91.21c-1.39,1.04-3.73,.26-5.23-1.75-1.5-2-1.58-4.47-.19-5.51,1.39-1.04,3.73-.26,5.23,1.75,1.5,2,1.58,4.47,.19,5.51h0Z"/>
    <path class="cls-1" d="M216.87,89.96c-1.22-.17-2.01-1.72-1.77-3.47,.24-1.75,1.42-3.04,2.64-2.87s2.01,1.72,1.77,3.47c-.24,1.75-1.42,3.04-2.64,2.87h0Z"/>
    <path class="cls-1" d="M207.71,49.35c-.35-1.18,.75-2.54,2.45-3.03,1.7-.5,3.35,.05,3.7,1.23,.35,1.18-.75,2.54-2.45,3.03-1.7,.5-3.35-.06-3.7-1.23h0Z"/>
    <path class="cls-1" d="M226.36,111.24c0,1.74-2.04,3.14-4.54,3.13-2.5,0-4.52-1.42-4.52-3.16,0-1.74,2.04-3.14,4.54-3.13s4.52,1.42,4.52,3.16h0Z"/>
    <path class="cls-1" d="M192.45,50.14c.81,1.53-.32,3.73-2.52,4.9-2.21,1.17-4.66,.88-5.47-.65-.81-1.53,.32-3.73,2.52-4.9,2.21-1.17,4.66-.88,5.47,.65h0Z"/>
    <path class="cls-1" d="M245.77,85.45c.81,1.53-.32,3.73-2.52,4.9-2.21,1.17-4.66,.88-5.47-.65-.81-1.53,.32-3.73,2.52-4.9,2.21-1.17,4.66-.88,5.47,.65h0Z"/>
  </g>
  <g>
    <path class="cls-6" d="M190.21,59.49c-.67-3.1-4.15,1.93-5.19,3.08-1.05,1.15-2.4,2.3-3.26,3.59-.47,1.09-.97,2.73-1.91,3.54-.43,.37-.12,1.31-.59,1.61-.83,.54-2.48-.7-3.67,.15-1.48,1.06-2.98,1.91-4.57,2.79-2.3,1.27-4.79,1.72-7.34,2.35-2.74,.67-5.12,2.38-7.93,2.75-2.56,.34-5.09,1.31-7.76,.76-3.17-.65-5.5-1.12-8.66-.45-2.23,.48-4.46,1.15-6.75,1.15-1.08,0-2.03-.49-3.01-.38-1.92,.21-3.78-.66-5.41-1.57-1.62-.91-3.24-1.39-5.01-2.02-.82-.29-1.85-.47-2.18-1.41-.39-1.1-.61-2.33-1.55-3.12,2.39-1.71,3.33-4.99,3.89-7.88,.39-2.03,.78-4.05,1.17-6.08,.19-.97-1.47-3.62,.04-3.95-.87-.89,.08-2.37-.29-3.48-.5-1.49-.88-2.91-1.2-4.44-.79-3.68-2.58-6.31-5.92-8.3-4.9-2.92-12.05-2.13-16.31,1.67-4.25,3.78-4.41,9.73-3.92,14.98,.2,2.16-.22,4.44,1.75,6.08,1.8,1.5,1.95,6,2.53,8.1,.49,1.78,.58,2.47-1.25,3.26-1.53,.66-3.26,.02-4.88-.23-1.42-.21-2.81,.03-4.24-.09-3.45-.29-7.09-.3-10.42,.8-6.19,2.04-9.01,9.74-11.64,15.16-2.55,5.24-3.48,11.33-5.94,16.5-1.28,2.69-2.3,6.33-4.13,8.67-2.03,2.6-4.07,5.19-6.1,7.79-3.96,5.05-7.01,11.22-10.37,16.67-1.42,2.3-3.08,4.4-4.71,6.56-.24,.32-.52,1.16-.54,1.55-.01,.21,.61,.44,.6,.65-.01,.34-.3,.66-.35,1-.2,1.43-.47,2.17-1.75,3.25-1.89,1.59-5.52,3.15-6.3,5.67-.3,.96-.57,2.18-1.02,3.01-.56,1.04-1.73,2.39-1.85,3.58-.13,1.29-.97,1.98-.97,3.47,0,1.4-.53,3.09,.95,3.95,1.69,.98,2.01,4.16,3.86,4.54,1.47,.29,.75-2.37,.69-2.96-.08-.85-.21-.94,.11-1.87,.27-.8,.51-1.36,1.01-2.03,.65-.86,1.31-2.06,2.12-2.75,.66-.57,2.95-2.16,3.75-2.35,4.23-.99,1,6.46,.97,7.82-.03,1.3,1.25,2.92,2.68,2.18,1.17-.6,1-2.58,1.43-3.57,1.64-3.84,2.37-9.87,1.18-13.93,.75,0,1.26-.8,1.79-1.3,.47-.44,1.6,.88,2.09,.43,1.06-.98,1.85-1.98,2.73-3.13,3.04-3.97,6.09-7.94,9.13-11.91,1.81-2.36,3.42-4.87,5.34-7.15,1.38-1.64,2.76-3.27,4.14-4.91,.53-.63,.85-1.6,1.23-2.33,.32-.62,1.27-1.15,1.8-1.6,.62,6.68,.5,13.1,.34,19.82-.14,5.92-.33,11.52-1.32,17.38-.41,2.41-.48,4.92-.55,7.36-.04,1.32-1.09,9.56-.11,10.05,.27,.14,.64,.32,1.06,.53,.55,.28,1.3,.29,1.91,.35,1.29,.12,1.2,.81,1.69,1.96,1.78,4.14,3.27,8.4,4.77,12.65,2.27,6.42,4.8,12.63,7.87,18.7,1.23,2.44,3.12,4.48,3.74,7.24,.37,1.64,.72,2.34,.05,3.82-.68,1.51-1.55,3.03-2.07,4.6-1.91,5.73-3.54,11.38-4.11,17.42-.57,6.04,.05,12.23-.65,18.22-.37,3.18-.92,6.34-.81,9.54,.09,2.74-.48,5.32-.57,8.05-.11,3.28-.81,6.33,.84,9.2,.29,.5-.1,3.39-.59,3.64-.74,.37-.25,3.92-.25,4.79s12.33,1.22,14,.18c1.04-1.21-.66-2.87,1.32-3.3,1.54-.33,2.93-.3,4.51-.3,2.86,0,6.41,.25,8.67-2,1.34-1.33,.04-5.61-1.87-6.19-2.03-.62-6.55-1.44-7.13-3.85-.59-2.42-1.1-4.65-.92-7.15,.9-12.45,1.13-24.76,5.51-36.62,1.32-3.58,2.65-7.16,3.97-10.74,.78-2.1,1.71-4.72,1.69-6.94-.03-3,.53-6.64-.11-9.57-.59-2.73-1.23-5.49-1.74-8.19,3.32,4.55,5.6,9.89,8.16,14.87,1.19,2.31,2.53,5.47,2.07,8.09-.41,2.38-1.76,4.79-1.91,7.15l-.4,6.15c-.4,6.19-.18,12.42-.18,18.62,0,2.53,.75,5.04,.75,7.57,0,3.29-.02,6.44-.39,9.7-.14,1.23,.35,2.56,.13,3.77-.32,1.75-.65,3.51-.97,5.26-.56,3-.51,6.22-.75,9.26-.08,.94-.37,2.32-.89,3.1-.72,1.09-.75,2.65-1.09,3.93-.99,3.7,6.87,4.58,9.28,5.02,1.32,.24,8.21,1.07,8.47,.23,.49-1.58,.34-2.69,2.08-2.75,1.5-.05,3.05-.24,4.55-.06,3.41,.4,6.49,.54,9.92,.44,2.18-.06,5.47-1.44,7.13-2.91,1.51-1.34,.66-3.01,.49-4.71-.47-4.74-6.25-5.04-9.88-5.95-1.22-.31-2.56-.48-3.66-1.1-.51-.29-.86-.94-1.33-1.17-.22-.11-1.18-.07-1.28-.33-.9-2.44-1.7-4.56-1.75-7.16-.09-4.17-.17-8.33-.26-12.49-.1-4.6,.53-9.21,1.31-13.74,1.38-8.01,2.75-16.03,4.13-24.04,2.36-13.72-2.99-28.5-7.12-41.35-1.89-5.89-3.96-11.78-6.72-17.32-1.57-3.15-3.44-6.67-6.32-8.83-.98-.73-.91-1.35-1.18-2.59-.47-2.19-.94-4.38-1.41-6.57-.59-2.74-.86-5.37-1.43-8.11-1.21-5.81-2.07-11.08-.41-16.91,.72-2.53,1.14-5.95,2.46-8.23,1.79-3.1,3.59-6.2,5.38-9.3,1.2-2.07,3.25-3.56,4.02-5.72,.83-2.35,5.81-3.47,8.02-4.48,5.27-2.42,10.2-2.88,15.87-3.67,5.75-.81,12.03-1.79,17.15-4.64,2.24-1.25,4.15-3.52,6.07-5.23,2.49-2.21,4.66-3.97,7.55-5.62,.53-.3,.96-1.19,1.33-1.67,.28-.36,1.6-.04,2.02,0,.99,.06,2.24-.31,3.23-.47,2.98-.5,5.72-.5,8.71-.77,.68-.06,4.78-.26,5.14-.63,1.27-1.27-.79-1.85-1.72-1.9-1.35-.07-6.83,.48-7.28-.85,1.67-.43,12.9-2.41,12.25-4.6-.84-2.83-10.81,2.45-12.6,1,3.19-.94,6.25-1.97,9.35-3.15,.87-.4,4.14-1.18,3.69-2.54-.64-1.93-3.15-.61-4.41-.11-1.33,.53-9.33,3.21-9.88,2.15,2.57-1.37,5.06-2.73,7.6-4.1,.98-.53,2.36-1.12,2.87-2.15,.83-1.67-1.44-1.59-2.41-1.37-2.05,.45-4.38,2.09-6.31,3.02-2.67,1.29-5.27,2.12-8.15,2.75,.76-2.65,4.33-4.42,3.7-7.32Z"/>
    <path class="cls-2" d="M190.21,59.49c-.67-3.1-4.15,1.93-5.19,3.08-1.05,1.15-2.4,2.3-3.26,3.59-.47,1.09-.97,2.73-1.91,3.54-.43,.37-.12,1.31-.59,1.61-.83,.54-2.48-.7-3.67,.15-1.48,1.06-2.98,1.91-4.57,2.79-2.3,1.27-4.79,1.72-7.34,2.35-2.74,.67-5.12,2.38-7.93,2.75-2.56,.34-5.09,1.31-7.76,.76-3.17-.65-5.5-1.12-8.66-.45-2.23,.48-4.46,1.15-6.75,1.15-1.08,0-2.03-.49-3.01-.38-1.92,.21-3.78-.66-5.41-1.57-1.62-.91-3.24-1.39-5.01-2.02-.82-.29-1.85-.47-2.18-1.41-.39-1.1-.61-2.33-1.55-3.12,2.39-1.71,3.33-4.99,3.89-7.88,.39-2.03,.78-4.05,1.17-6.08,.19-.97-1.47-3.62,.04-3.95-.87-.89,.08-2.37-.29-3.48-.5-1.49-.88-2.91-1.2-4.44-.79-3.68-2.58-6.31-5.92-8.3-4.9-2.92-12.05-2.13-16.31,1.67-4.25,3.78-4.41,9.73-3.92,14.98,.2,2.16-.22,4.44,1.75,6.08,1.8,1.5,1.95,6,2.53,8.1,.49,1.78,.58,2.47-1.25,3.26-1.53,.66-3.26,.02-4.88-.23-1.42-.21-2.81,.03-4.24-.09-3.45-.29-7.09-.3-10.42,.8-6.19,2.04-9.01,9.74-11.64,15.16-2.55,5.24-3.48,11.33-5.94,16.5-1.28,2.69-2.3,6.33-4.13,8.67-2.03,2.6-4.07,5.19-6.1,7.79-3.96,5.05-7.01,11.22-10.37,16.67-1.42,2.3-3.08,4.4-4.71,6.56-.24,.32-.52,1.16-.54,1.55-.01,.21,.61,.44,.6,.65-.01,.34-.3,.66-.35,1-.2,1.43-.47,2.17-1.75,3.25-1.89,1.59-5.52,3.15-6.3,5.67-.3,.96-.57,2.18-1.02,3.01-.56,1.04-1.73,2.39-1.85,3.58-.13,1.29-.97,1.98-.97,3.47,0,1.4-.53,3.09,.95,3.95,1.69,.98,2.01,4.16,3.86,4.54,1.47,.29,.75-2.37,.69-2.96-.08-.85-.21-.94,.11-1.87,.27-.8,.51-1.36,1.01-2.03,.65-.86,1.31-2.06,2.12-2.75,.66-.57,2.95-2.16,3.75-2.35,4.23-.99,1,6.46,.97,7.82-.03,1.3,1.25,2.92,2.68,2.18,1.17-.6,1-2.58,1.43-3.57,1.64-3.84,2.37-9.87,1.18-13.93,.75,0,1.26-.8,1.79-1.3,.47-.44,1.6,.88,2.09,.43,1.06-.98,1.85-1.98,2.73-3.13,3.04-3.97,6.09-7.94,9.13-11.91,1.81-2.36,3.42-4.87,5.34-7.15,1.38-1.64,2.76-3.27,4.14-4.91,.53-.63,.85-1.6,1.23-2.33,.32-.62,1.27-1.15,1.8-1.6,.62,6.68,.5,13.1,.34,19.82-.14,5.92-.33,11.52-1.32,17.38-.41,2.41-.48,4.92-.55,7.36-.04,1.32-1.09,9.56-.11,10.05,.27,.14,.64,.32,1.06,.53,.55,.28,1.3,.29,1.91,.35,1.29,.12,1.2,.81,1.69,1.96,1.78,4.14,3.27,8.4,4.77,12.65,2.27,6.42,4.8,12.63,7.87,18.7,1.23,2.44,3.12,4.48,3.74,7.24,.37,1.64,.72,2.34,.05,3.82-.68,1.51-1.55,3.03-2.07,4.6-1.91,5.73-3.54,11.38-4.11,17.42-.57,6.04,.05,12.23-.65,18.22-.37,3.18-.92,6.34-.81,9.54,.09,2.74-.48,5.32-.57,8.05-.11,3.28-.81,6.33,.84,9.2,.29,.5-.1,3.39-.59,3.64-.74,.37-.25,3.92-.25,4.79s12.33,1.22,14,.18c1.04-1.21-.66-2.87,1.32-3.3,1.54-.33,2.93-.3,4.51-.3,2.86,0,6.41,.25,8.67-2,1.34-1.33,.04-5.61-1.87-6.19-2.03-.62-6.55-1.44-7.13-3.85-.59-2.42-1.1-4.65-.92-7.15,.9-12.45,1.13-24.76,5.51-36.62,1.32-3.58,2.65-7.16,3.97-10.74,.78-2.1,1.71-4.72,1.69-6.94-.03-3,.53-6.64-.11-9.57-.59-2.73-1.23-5.49-1.74-8.19,3.32,4.55,5.6,9.89,8.16,14.87,1.19,2.31,2.53,5.47,2.07,8.09-.41,2.38-1.76,4.79-1.91,7.15l-.4,6.15c-.4,6.19-.18,12.42-.18,18.62,0,2.53,.75,5.04,.75,7.57,0,3.29-.02,6.44-.39,9.7-.14,1.23,.35,2.56,.13,3.77-.32,1.75-.65,3.51-.97,5.26-.56,3-.51,6.22-.75,9.26-.08,.94-.37,2.32-.89,3.1-.72,1.09-.75,2.65-1.09,3.93-.99,3.7,6.87,4.58,9.28,5.02,1.32,.24,8.21,1.07,8.47,.23,.49-1.58,.34-2.69,2.08-2.75,1.5-.05,3.05-.24,4.55-.06,3.41,.4,6.49,.54,9.92,.44,2.18-.06,5.47-1.44,7.13-2.91,1.51-1.34,.66-3.01,.49-4.71-.47-4.74-6.25-5.04-9.88-5.95-1.22-.31-2.56-.48-3.66-1.1-.51-.29-.86-.94-1.33-1.17-.22-.11-1.18-.07-1.28-.33-.9-2.44-1.7-4.56-1.75-7.16-.09-4.17-.17-8.33-.26-12.49-.1-4.6,.53-9.21,1.31-13.74,1.38-8.01,2.75-16.03,4.13-24.04,2.36-13.72-2.99-28.5-7.12-41.35-1.89-5.89-3.96-11.78-6.72-17.32-1.57-3.15-3.44-6.67-6.32-8.83-.98-.73-.91-1.35-1.18-2.59-.47-2.19-.94-4.38-1.41-6.57-.59-2.74-.86-5.37-1.43-8.11-1.21-5.81-2.07-11.08-.41-16.91,.72-2.53,1.14-5.95,2.46-8.23,1.79-3.1,3.59-6.2,5.38-9.3,1.2-2.07,3.25-3.56,4.02-5.72,.83-2.35,5.81-3.47,8.02-4.48,5.27-2.42,10.2-2.88,15.87-3.67,5.75-.81,12.03-1.79,17.15-4.64,2.24-1.25,4.15-3.52,6.07-5.23,2.49-2.21,4.66-3.97,7.55-5.62,.53-.3,.96-1.19,1.33-1.67,.28-.36,1.6-.04,2.02,0,.99,.06,2.24-.31,3.23-.47,2.98-.5,5.72-.5,8.71-.77,.68-.06,4.78-.26,5.14-.63,1.27-1.27-.79-1.85-1.72-1.9-1.35-.07-6.83,.48-7.28-.85,1.67-.43,12.9-2.41,12.25-4.6-.84-2.83-10.81,2.45-12.6,1,3.19-.94,6.25-1.97,9.35-3.15,.87-.4,4.14-1.18,3.69-2.54-.64-1.93-3.15-.61-4.41-.11-1.33,.53-9.33,3.21-9.88,2.15,2.57-1.37,5.06-2.73,7.6-4.1,.98-.53,2.36-1.12,2.87-2.15,.83-1.67-1.44-1.59-2.41-1.37-2.05,.45-4.38,2.09-6.31,3.02-2.67,1.29-5.27,2.12-8.15,2.75,.76-2.65,4.33-4.42,3.7-7.32Z"/>
  </g>
  <text class="cls-4" transform="translate(155.75 205.8) rotate(-14.42)"><tspan x="0" y="0">SM</tspan><tspan class="cls-5" x="51.86" y="0">A</tspan><tspan x="72.95" y="0">CC</tspan></text>
</svg>