<?xml version="1.0" encoding="utf-8"?>
<!-- Generator: Adobe Illustrator 12.0.1, SVG Export Plug-In . SVG Version: 6.00 Build 51448)  -->
<!DOCTYPE svg PUBLIC "-//W3C//DTD SVG 1.1//EN" "http://www.w3.org/Graphics/SVG/1.1/DTD/svg11.dtd" [
	<!ENTITY ns_svg "http://www.w3.org/2000/svg">
	<!ENTITY ns_xlink "http://www.w3.org/1999/xlink">
]>
<svg  version="1.1" id="Layer_1" xmlns="&ns_svg;" xmlns:xlink="&ns_xlink;" width="263.043" height="72.355"
	 viewBox="0 0 263.043 72.355" overflow="visible" enable-background="new 0 0 263.043 72.355" xml:space="preserve">
<g>
	<g>
		<path fill="#FFFFFF" d="M25.602,20.367c0.113,0.109,0.184,0.094,0.184,0.094c8.453-0.332,13.296,2.882,13.707,4.201l3.379-0.061
			l1.051-2.285c0.064-0.189,0.031-0.469-0.036-0.543c-1.016-1.129-9.523-3.559-19.789-3.559c-10.954,0-17.9,2.162-19.363,3.246
			c0,0-0.352,0.211-0.361,0.531c-0.006,0.148,0.208,0.562,0.208,0.562l0.297,0.645c0.094,0.188,0.223,0.176,0.445,0.047
			c0,0,0.2-0.062,0.238-0.193c0.04-0.131-0.084-0.357-0.084-0.357c-0.218-0.445,0.07-0.504,0.088-0.512l0.627-0.285
			c0.298-0.086,0.334,0.072,0.434,0.309c0,0,0.115,0.328,0.197,0.379c0.157,0.098,0.657-0.188,2.149-0.551
			c0.101-0.02,0.156-0.029,0.355-0.11c0.145-0.058,0.016-0.558,0.016-0.558c-0.053-0.25-0.168-0.5,0.375-0.59l0.934-0.186
			c0.434-0.115,0.475,0.111,0.527,0.361c0,0,0.027,0.379,0.125,0.535c0.124,0.2,0.348-0.117,3.195-0.421
			c0,0,0.415-0.012,0.496-0.154c0.086-0.15,0.016-0.487,0.016-0.487c-0.031-0.343-0.171-0.596,0.488-0.636l1.246-0.114
			c0.934-0.152,0.775,0.161,0.809,0.504c0,0,0.032,0.371,0.102,0.438c0.07,0.068,0.365,0.062,0.365,0.062
			c1.598-0.164,2.49-0.156,4.186-0.229c0,0,0.237-0.002,0.325-0.1c0.085-0.098,0.062-0.203,0.062-0.203
			c0-0.191-0.041-0.496,0.082-0.629c0.141-0.146,0.36-0.08,0.582-0.08l1.426-0.002c0.219,0,0.668-0.098,0.795,0.059
			c0.083,0.102,0.057,0.707,0.057,0.707S25.536,20.3,25.602,20.367z"/>
		<path fill="#FFFFFF" d="M24.165,6.633c-8.266,0-13.348,2.652-16.604,5.848c0,0-0.057,0.055-0.086,0.137
			c-0.06,0.164-0.076,0.404,0.26,0.289c7.078-2.971,14.812-1.109,17.277,1.691c0.086,0.129,0.008,0.162-0.096,0.164
			c-2.49,0.025-4.576-0.121-9.178,0.523c-2.488,0.352-4.701,0.713-6.57,1.199c-3.078,0.801-5.26,1.801-6.479,2.609
			c-0.448,0.243-0.483,0.415-0.594,0.622c-0.13,0.4-0.115,0.398-0.201,0.672c-0.152,0.516-0.23,0.848-0.259,1.02
			c-0.053,0.312,0.289,0.203,0.467,0.021c0.371-0.371,1.386-1.268,2.879-1.963c1.519-0.707,4.035-1.512,6.761-2.016
			c3.637-0.672,8.065-1.1,12.114-1.109c4.695-0.012,8.902,0.475,12.422,1.16c3.576,0.699,6.406,1.668,8.234,2.559
			c0.859,0.418,1.34,0.801,1.917,1.291c0.455,0.465,0.482,0.064,0.475-0.057c0,0-0.086-0.621-0.848-2.022
			C43.719,14.977,37.477,6.633,24.165,6.633"/>
		<path fill="#FFFFFF" stroke="#FFFFFF" stroke-width="0.25" stroke-linejoin="round" d="M0.153,61.906
			c0,1.92,7.976,5.855,24.484,5.855c16.02,0,24.48-3.936,24.48-5.855l-0.082-2.945c0,0.062-0.012-0.191-0.036-0.125
			c-0.027-0.531-0.875-0.637-3.463-0.672l-0.059-1.633c0,0.168-0.546,0.523-0.887,0.719c-2.107,1.218-10.169,3.031-20.251,3.031
			c-11.676,0-19.85-2.423-21.139-3.75L3.172,59.05c3.843,2.745,15.68,5.208,27.632,3.938c0.356-0.013,0.477-0.085,0.838,0.019
			c0.098,0.029,0.426,0.318-0.225,0.557c-6.93,2.291-24.045,1.779-31.293-3.723l0.033,2.066"/>
		<g>
			<path fill="none" d="M34.303,23.879h0.145c-0.024-0.004-0.049-0.008-0.073-0.008C34.348,23.871,34.324,23.875,34.303,23.879z"/>
			<path fill="none" d="M34.125,24.5c0,0.008,0.002,0.017,0.004,0.027v-0.516l0,0l0,0c-0.001,0.008-0.004,0.016-0.004,0.027V24.5z"
				/>
			<rect x="34.129" y="24.012" fill="#FFFFFF" width="0" height="0.516"/>
			<path fill="#FFFFFF" d="M29.75,23.691c0.008,0,0.012-0.004,0.02-0.004h-0.037C29.738,23.688,29.745,23.691,29.75,23.691z"/>
			<rect x="34.129" y="24.527" fill="#FFFFFF" width="0" height="0"/>
		</g>
		<path fill="#FFFFFF" d="M34.415,22.699L29.9,22.695c-0.221-0.004-0.318,0.109-0.322,0.328v0.506
			c-0.001,0.238,0.102,0.344,0.34,0.346h1.398c0.129-0.008,0.162,0.05,0.168,0.07c0.055,0.141-0.203,0.258-0.29,0.316l-0.689,0.449
			c-0.096,0.059-0.186,0.185-0.184,0.431l-0.029,32.345c0.066,0.567,0.968,0.621,1.953,0.618c0.831-0.004,1.809-0.049,1.912-0.602
			c0,0-0.027-30.786,0.002-33.443c0.004-0.123,0.059-0.15,0.078-0.162c0.031-0.02,0.172-0.031,0.172-0.031
			c0.207-0.008,0.316-0.109,0.318-0.314v-0.545C34.719,22.809,34.59,22.705,34.415,22.699z"/>
		<path fill="#FFFFFF" stroke="#FFFFFF" stroke-width="0.25" stroke-linejoin="round" d="M26.999,45.199l0.107-0.216h0.305
			l-0.002-0.202h-6.268l-0.001,0.202h0.334l0.092,0.196l0.376,0.788c0,0,0.066,0.071,0.149,0.106
			c0.082,0.034,0.246,0.047,0.304,0.049c1.646,0.014,1.289-0.002,1.549-0.002c0.121,0.004,0.287,0.006,0.369,0.105
			c0.055,0.069,0.1,0.26-0.129,0.412c-0.537,0.357-1.434,0.943-1.855,1.219c-0.05,0.029-0.191,0.123-0.238,0.238
			c-0.051,0.131-0.042,0.229-0.042,0.229v6.078l-0.533,0.206c0,0-0.16,1.212,0.024,1.337c0.176,0.119,5.285,0.119,5.46,0.008
			c0.176-0.113,0.024-1.367,0.024-1.367l-0.539-0.184v-8.16L26.999,45.199z"/>
		<path fill="#FFFFFF" d="M43.168,24.461l-4.516-0.004c-0.219-0.004-0.321,0.109-0.325,0.33v0.504c0,0.24,0.102,0.342,0.342,0.346
			h1.4c0.127-0.008,0.161,0.051,0.166,0.07c0.055,0.141-0.203,0.258-0.291,0.316l-0.688,0.449c-0.097,0.059-0.188,0.184-0.184,0.434
			l-0.029,29.16c0.066,0.57,0.967,0.621,1.951,0.617c0.832-0.002,1.809-0.047,1.915-0.601c0,0-0.028-27.603,0.004-30.261
			c0-0.123,0.055-0.15,0.074-0.162c0.031-0.02,0.172-0.031,0.172-0.031c0.207-0.008,0.318-0.109,0.32-0.314V24.77
			C43.471,24.57,43.344,24.467,43.168,24.461z"/>
		<path fill="#FFFFFF" d="M18.496,22.699l-4.511-0.004c-0.221,0-0.32,0.111-0.324,0.332v0.504c0,0.238,0.101,0.344,0.342,0.344H15.4
			c0.127-0.008,0.161,0.055,0.166,0.07c0.055,0.141-0.203,0.259-0.289,0.316l-0.688,0.449c-0.098,0.059-0.188,0.188-0.186,0.434
			l-0.029,32.348c0.066,0.564,0.969,0.619,1.953,0.613c0.833,0,1.809-0.047,1.913-0.598c0,0-0.025-30.785,0.004-33.445
			c0.001-0.123,0.056-0.152,0.076-0.164c0.032-0.02,0.172-0.031,0.172-0.031c0.207-0.004,0.316-0.109,0.319-0.312v-0.545
			C18.801,22.811,18.672,22.705,18.496,22.699z"/>
		<path fill="#FFFFFF" d="M9.715,24.545l-4.516-0.006c-0.218,0-0.32,0.113-0.324,0.332v0.504c0,0.238,0.102,0.343,0.342,0.343
			l1.4,0.004c0.127-0.012,0.161,0.051,0.166,0.07c0.055,0.139-0.203,0.257-0.291,0.316l-0.688,0.447
			c-0.098,0.056-0.188,0.186-0.184,0.431L5.592,56.152c0.065,0.565,0.969,0.618,1.952,0.617c0.832-0.003,1.809-0.052,1.914-0.602
			c0,0-0.027-27.602,0.004-30.262c0-0.121,0.054-0.15,0.074-0.162c0.031-0.021,0.171-0.033,0.171-0.033
			c0.208-0.004,0.318-0.105,0.321-0.312v-0.543C10.018,24.656,9.889,24.55,9.715,24.545z"/>
	</g>
	<line fill="none" stroke="#FFFFFF" stroke-width="0.8" stroke-miterlimit="10" x1="68.11" y1="0" x2="68.11" y2="72.355"/>
	<g>
		<path fill="#FFFFFF" d="M98.437,15.993h-0.613c-0.183-1.289-0.429-1.575-1.288-1.575h-1.471v5.351
			c0,1.133,0.156,1.314,1.432,1.314v0.611h-5.051v-0.611c1.275,0,1.432-0.182,1.432-1.314v-5.351h-1.549
			c-0.612,0-1.028,0.248-1.211,1.575h-0.611l0.247-2.604h0.559c0.053,0.078,0.105,0.131,0.208,0.17
			c0.092,0.025,0.235,0.038,0.443,0.038h5.859c0.611,0,0.689-0.013,0.819-0.208h0.561L98.437,15.993z"/>
		<path fill="#FFFFFF" d="M108.758,17.125v-1.627c0-1.028-0.208-1.263-1.093-1.288v-0.612h4.413v0.612
			c-0.95,0.025-1.133,0.26-1.133,1.118v4.466c0,0.913,0.104,1.275,1.133,1.289v0.611h-4.413v-0.611
			c0.846-0.039,1.093-0.247,1.093-1.264v-1.886h-3.905v1.926c0,0.792,0.092,1.197,1.133,1.224v0.611h-4.465v-0.611
			c0.898-0.039,1.144-0.196,1.144-1.264v-4.358c0-1.043-0.286-1.251-1.144-1.251v-0.612h4.465v0.612
			c-0.873,0.052-1.133,0.169-1.133,1.237v1.678H108.758z"/>
	</g>
	<g>
		<path fill="#FFFFFF" d="M122.986,13.598l0.118,1.939h-0.613c-0.117-0.884-0.313-1.132-0.95-1.132h-2.55v2.838h1.679
			c0.925,0,1.171-0.195,1.171-0.99h0.612v2.721h-0.612c0-0.728-0.208-0.924-1.159-0.924h-1.691v2.096c0,0.69,0.078,0.741,0.78,0.741
			h1.511c1.133,0,1.431-0.493,1.627-1.353h0.611l-0.17,2.161h-7.939v-0.611c1.184,0,1.392-0.273,1.392-1.197v-4.479
			c0-1.105-0.377-1.196-1.303-1.196v-0.612H122.986z"/>
		<path fill="#FFFFFF" d="M141.707,13.598v0.612c-1.094,0-1.312,0.195-1.312,1.237v2.875c0,2.604-1.612,3.58-3.84,3.58
			c-2.371,0-3.919-1.054-3.919-2.98v-3.449c0-0.886-0.183-1.263-1.094-1.263v-0.612h4.44v0.612c-0.938,0-1.161,0.273-1.161,1.146
			v3.462c0,1.209,0.652,1.965,2.256,1.965c1.73,0,2.393-0.924,2.393-2.578v-2.745c0-1.005-0.246-1.251-1.301-1.251v-0.612H141.707z"
			/>
	</g>
	<g>
		<path fill="#FFFFFF" d="M154.778,13.598v0.612c-0.937,0-1.171,0.26-1.171,1.172v6.404h-1.027l-5.897-6.223v4.296
			c0,0.86,0.13,1.224,1.236,1.224v0.611h-3.346v-0.611c0.913,0,1.185-0.196,1.185-1.289v-5.246
			c-0.155-0.156-0.468-0.338-1.092-0.338v-0.612h3.07l4.946,5.258v-3.486c0-0.795-0.142-1.159-1.196-1.159v-0.612H154.778z"/>
		<path fill="#FFFFFF" d="M157.839,21.694v-0.611c0.923,0,1.118-0.339,1.118-1.172v-4.45c0-0.913-0.181-1.251-1.118-1.251v-0.612
			h4.492v0.612c-1.044,0-1.187,0.338-1.187,1.251v4.372c0,0.807,0.078,1.25,1.187,1.25v0.611H157.839z"/>
	</g>
	<g>
		<path fill="#FFFFFF" d="M174.619,14.21c-0.949,0-1.184,0.182-1.758,1.459l-2.825,6.233h-0.95l-2.732-6.066
			c-0.68-1.51-0.819-1.626-1.694-1.626v-0.612h4.908v0.612c-0.963,0-1.326,0.182-1.326,0.521c0,0.168,0.076,0.416,0.249,0.793
			l1.729,3.789l1.497-3.346c0.363-0.819,0.455-1.054,0.455-1.276c0-0.337-0.338-0.507-1.146-0.48v-0.612h3.595V14.21z"/>
		<path fill="#FFFFFF" d="M183.815,13.598l0.116,1.939h-0.611c-0.117-0.884-0.312-1.132-0.951-1.132h-2.552v2.838h1.681
			c0.923,0,1.17-0.195,1.17-0.99h0.613v2.721h-0.613c0-0.728-0.21-0.924-1.156-0.924h-1.694v2.096c0,0.69,0.077,0.741,0.783,0.741
			h1.508c1.133,0,1.433-0.493,1.628-1.353h0.61l-0.165,2.161h-7.944v-0.611c1.187,0,1.396-0.273,1.396-1.197v-4.479
			c0-1.105-0.38-1.196-1.304-1.196v-0.612H183.815z"/>
	</g>
	<path fill="#FFFFFF" d="M198.294,21.812h-1.601c-1.17,0-1.9-0.221-2.459-0.781c-0.846-0.845-1.615-2.225-2.239-2.772h-0.691v1.744
		c0,0.964,0.379,1.081,1.395,1.081v0.611h-4.934v-0.611c1.095,0,1.354-0.196,1.354-1.146v-4.542c0-0.977-0.234-1.185-1.354-1.185
		v-0.612c0.793-0.052,1.329-0.092,2.37-0.144c0.817-0.038,1.626-0.064,2.067-0.064c2.083,0,3.984,0.352,3.984,2.356
		c0,0.99-0.639,1.718-1.86,2.122c0.831,0.65,1.312,1.783,2.146,2.616c0.571,0.572,1.121,0.701,1.821,0.715V21.812z M191.304,17.62
		c1.89,0.026,2.565-0.56,2.565-1.9c0-1.029-0.663-1.705-1.926-1.705h-0.64V17.62z"/>
	<g>
		<path fill="#FFFFFF" d="M200.628,19.234c0.366,1.25,1.224,1.979,2.305,1.979c0.795,0,1.342-0.482,1.342-1.158
			c0-1.719-4.14-1.888-4.14-4.414c0-0.924,0.636-2.252,2.772-2.252c0.963,0,1.641,0.261,2.018,0.261c0.144,0,0.221-0.04,0.286-0.169
			h0.431l0.219,2.316h-0.61c-0.352-1.12-1.263-1.719-2.2-1.719c-0.675,0-1.146,0.339-1.146,0.82c0,1.354,4.35,1.732,4.35,4.53
			c0,1.472-1.238,2.473-3.044,2.473c-0.928,0-1.876-0.286-2.097-0.286c-0.21,0-0.301,0.117-0.326,0.195h-0.417l-0.353-2.577H200.628
			z"/>
		<path fill="#FFFFFF" d="M209.445,21.694v-0.611c0.924,0,1.118-0.339,1.118-1.172v-4.45c0-0.913-0.181-1.251-1.118-1.251v-0.612
			h4.491v0.612c-1.042,0-1.185,0.338-1.185,1.251v4.372c0,0.807,0.077,1.25,1.185,1.25v0.611H209.445z"/>
		<path fill="#FFFFFF" d="M225.608,15.993h-0.61c-0.183-1.289-0.433-1.575-1.29-1.575h-1.471v5.351c0,1.133,0.157,1.314,1.434,1.314
			v0.611h-5.051v-0.611c1.275,0,1.43-0.182,1.43-1.314v-5.351h-1.548c-0.611,0-1.028,0.248-1.211,1.575h-0.612l0.249-2.604h0.559
			c0.055,0.078,0.104,0.131,0.206,0.17c0.094,0.025,0.235,0.038,0.444,0.038h5.858c0.613,0,0.69-0.013,0.82-0.208h0.559
			L225.608,15.993z"/>
	</g>
	<path fill="#FFFFFF" d="M237.418,14.21c-0.886,0-1.106,0.182-1.81,1.263l-1.914,2.941v1.434c0,0.936,0.129,1.235,1.291,1.235v0.611
		h-4.779v-0.611c1.146,0,1.301-0.313,1.301-1.25v-1.34l-2.396-3.241c-0.623-0.847-0.87-1.042-1.61-1.042v-0.612h4.686v0.612
		c-0.638,0-0.886,0.078-0.886,0.325c0,0.105,0.09,0.274,0.207,0.429l1.822,2.474l1.314-2.056c0.234-0.379,0.342-0.6,0.342-0.755
		c0-0.301-0.222-0.417-0.86-0.417v-0.612h3.293V14.21z"/>
	<g>
		<path fill="#FFFFFF" d="M93.812,34.686c0.966,0,1.59,0.862,1.59,2.185c0,2.571-2.422,4.205-3.997,4.205
			c-0.952,0-1.621-0.878-1.621-2.125C89.784,36.781,91.777,34.686,93.812,34.686z M92.325,40.45c0.565,0,1.382-1.469,1.382-3.312
			c0-0.981-0.387-1.843-0.817-1.843c-0.609,0-1.382,1.501-1.382,3.298C91.508,39.664,91.85,40.45,92.325,40.45z"/>
		<path fill="#FFFFFF" d="M99.034,40.407c-0.193,1.115-0.549,2.096-1.471,3.017c-0.594,0.595-1.323,0.951-2.332,0.951
			c-0.907,0-1.546-0.371-1.546-0.907c0-0.386,0.401-0.743,0.848-0.743c0.906,0,0.875,1.115,1.575,1.115
			c0.534,0,0.876-0.624,1.041-1.62l1.114-6.703h-1.114l0.073-0.355c0.357,0,0.892-0.149,1.174-0.329
			c0.312-2.082,1.53-3.909,3.567-3.909c0.892,0,1.396,0.312,1.396,0.846c0,0.432-0.356,0.775-0.802,0.775
			c-0.833,0-1.144-1.025-1.649-1.025c-0.357,0-0.476,0.548-0.684,1.841l-0.238,1.471h1.071l-0.149,0.684h-1.055L99.034,40.407z"/>
	</g>
	<g>
		<path fill="#FFFFFF" d="M119.12,32.814v0.613c-0.937,0-1.171,0.259-1.171,1.172v6.403h-1.029l-5.896-6.223v4.298
			c0,0.858,0.129,1.222,1.236,1.222v0.614h-3.346V40.3c0.911,0,1.185-0.194,1.185-1.288v-5.246
			c-0.156-0.155-0.467-0.338-1.093-0.338v-0.613h3.072l4.946,5.259v-3.486c0-0.796-0.143-1.159-1.197-1.159v-0.613H119.12z"/>
		<path fill="#FFFFFF" d="M126.16,41.121c-3.658,0-4.791-2.395-4.791-4.205c0-2.188,1.562-4.309,5.129-4.309
			c3.619,0,4.712,2.396,4.712,4.165C131.21,38.503,130.117,41.121,126.16,41.121z M126.095,33.232c-1.171,0-2.408,0.832-2.408,3.084
			c0,2.46,1.184,4.179,2.891,4.179c1.288,0,2.316-1.002,2.316-3.098C128.894,34.937,127.749,33.232,126.095,33.232z"/>
	</g>
	<g>
		<path fill="#FFFFFF" d="M144.106,41.03h-1.6c-1.175,0-1.9-0.222-2.462-0.781c-0.846-0.847-1.612-2.226-2.24-2.771h-0.688v1.743
			c0,0.962,0.378,1.079,1.394,1.079v0.614h-4.934V40.3c1.092,0,1.352-0.194,1.352-1.145v-4.543c0-0.977-0.233-1.185-1.352-1.185
			v-0.613c0.793-0.05,1.326-0.09,2.368-0.142c0.819-0.04,1.628-0.065,2.069-0.065c2.084,0,3.984,0.351,3.984,2.356
			c0,0.988-0.638,1.717-1.862,2.122c0.833,0.65,1.315,1.782,2.149,2.616c0.571,0.572,1.118,0.703,1.82,0.715V41.03z M137.117,36.838
			c1.887,0.026,2.565-0.561,2.565-1.901c0-1.028-0.665-1.704-1.929-1.704h-0.637V36.838z"/>
		<path fill="#FFFFFF" d="M154.407,35.211h-0.611c-0.184-1.29-0.43-1.575-1.288-1.575h-1.474v5.351c0,1.131,0.156,1.313,1.432,1.313
			v0.614h-5.048V40.3c1.274,0,1.429-0.183,1.429-1.313v-5.351h-1.548c-0.612,0-1.028,0.247-1.209,1.575h-0.611l0.245-2.604h0.559
			c0.054,0.078,0.105,0.129,0.209,0.17c0.092,0.025,0.237,0.037,0.441,0.037h5.86c0.61,0,0.689-0.012,0.819-0.207h0.559
			L154.407,35.211z"/>
	</g>
	<g>
		<path fill="#FFFFFF" d="M164.477,36.343v-1.627c0-1.029-0.21-1.262-1.095-1.288v-0.613h4.411v0.613
			c-0.949,0.026-1.132,0.259-1.132,1.12v4.464c0,0.912,0.103,1.276,1.132,1.288v0.614h-4.411V40.3
			c0.846-0.038,1.095-0.246,1.095-1.262V37.15h-3.908v1.928c0,0.793,0.092,1.196,1.134,1.222v0.614h-4.465V40.3
			c0.897-0.038,1.145-0.194,1.145-1.262v-4.362c0-1.041-0.287-1.249-1.145-1.249v-0.613h4.465v0.613
			c-0.873,0.051-1.134,0.17-1.134,1.236v1.679H164.477z"/>
		<path fill="#FFFFFF" d="M185.112,38.36c-0.104,0.743-0.416,1.706-0.795,2.591l-0.036,0.092c-0.12-0.04-0.249-0.065-0.379-0.078
			c-0.116-0.027-0.261-0.027-0.416-0.027c-0.353,0-0.729,0.04-1.133,0.093c-0.392,0.038-0.808,0.091-1.263,0.091
			c-1.746,0-2.942-0.586-3.684-1.393c-0.744-0.809-1.067-1.822-1.067-2.722c0-1.301,0.521-2.382,1.431-3.175
			c0.899-0.782,2.188-1.225,3.698-1.225c1.39,0,2.159,0.391,2.484,0.391c0.118,0,0.184-0.052,0.235-0.184h0.482l0.115,2.723h-0.611
			c-0.143-0.665-0.468-1.211-0.923-1.589c-0.456-0.378-1.03-0.586-1.681-0.586c-1.73,0-2.915,1.418-2.915,3.437
			c0,2.121,1.235,3.567,3.059,3.567c1.224,0,2.162-0.664,2.787-2.006H185.112z"/>
	</g>
	<g>
		<path fill="#FFFFFF" d="M196.621,40.914h-4.725V40.3c0.886,0,1.199-0.103,1.199-0.442c0-0.17-0.093-0.48-0.276-0.963l-0.3-0.767
			h-2.861l-0.235,0.688c-0.182,0.534-0.286,0.898-0.286,1.004c0,0.351,0.43,0.479,1.146,0.479v0.614h-3.345V40.3
			c0.963,0,1.08-0.221,1.549-1.573l2.031-5.832l-0.117-0.287h2.342l2.369,6.157c0.469,1.21,0.756,1.497,1.51,1.535V40.914z
			 M191.024,34.234l-1.08,3.085h2.279L191.024,34.234z"/>
		<path fill="#FFFFFF" d="M209.523,41.03h-1.603c-1.172,0-1.9-0.222-2.459-0.781c-0.847-0.847-1.613-2.226-2.24-2.771h-0.688v1.743
			c0,0.962,0.375,1.079,1.391,1.079v0.614h-4.934V40.3c1.092,0,1.354-0.194,1.354-1.145v-4.543c0-0.977-0.233-1.185-1.354-1.185
			v-0.613c0.795-0.05,1.329-0.09,2.371-0.142c0.82-0.04,1.628-0.065,2.07-0.065c2.083,0,3.98,0.351,3.98,2.356
			c0,0.988-0.639,1.717-1.859,2.122c0.834,0.65,1.312,1.782,2.146,2.616c0.573,0.572,1.121,0.703,1.823,0.715V41.03z
			 M202.534,36.838c1.886,0.026,2.564-0.561,2.564-1.901c0-1.028-0.663-1.704-1.928-1.704h-0.637V36.838z"/>
	</g>
	<g>
		<path fill="#FFFFFF" d="M215.645,41.121c-3.655,0-4.791-2.395-4.791-4.205c0-2.188,1.565-4.309,5.129-4.309
			c3.62,0,4.713,2.396,4.713,4.165C220.696,38.503,219.603,41.121,215.645,41.121z M215.579,33.232c-1.17,0-2.408,0.832-2.408,3.084
			c0,2.46,1.187,4.179,2.891,4.179c1.292,0,2.318-1.002,2.318-3.098C218.379,34.937,217.233,33.232,215.579,33.232z"/>
		<path fill="#FFFFFF" d="M228.132,32.814v0.613c-1.104,0-1.324,0.208-1.324,1.236v4.518c0,0.793,0.091,0.924,0.961,0.924h0.991
			c0.793,0,1.067-0.026,2.159-1.548h0.613l-0.992,2.356h-7.196V40.3c1.133,0,1.275-0.337,1.275-1.262v-4.374
			c0-0.937-0.143-1.236-1.275-1.236v-0.613H228.132z"/>
	</g>
	<g>
		<path fill="#FFFFFF" d="M234.07,40.914V40.3c0.925,0,1.12-0.337,1.12-1.171v-4.453c0-0.911-0.183-1.249-1.12-1.249v-0.613h4.491
			v0.613c-1.042,0-1.186,0.338-1.186,1.249v4.374c0,0.808,0.079,1.25,1.186,1.25v0.614H234.07z"/>
		<path fill="#FFFFFF" d="M252.079,32.814v0.613c-0.938,0-1.17,0.259-1.17,1.172v6.403h-1.029l-5.894-6.223v4.298
			c0,0.858,0.126,1.222,1.233,1.222v0.614h-3.343V40.3c0.909,0,1.184-0.194,1.184-1.288v-5.246c-0.157-0.155-0.47-0.338-1.095-0.338
			v-0.613h3.07l4.95,5.259v-3.486c0-0.796-0.143-1.159-1.2-1.159v-0.613H252.079z"/>
	</g>
	<path fill="#FFFFFF" d="M263.043,40.914h-4.725V40.3c0.884,0,1.198-0.103,1.198-0.442c0-0.17-0.094-0.48-0.275-0.963l-0.298-0.767
		h-2.864l-0.235,0.688c-0.183,0.534-0.286,0.898-0.286,1.004c0,0.351,0.43,0.479,1.145,0.479v0.614h-3.344V40.3
		c0.964,0,1.081-0.221,1.548-1.573l2.033-5.832l-0.12-0.287h2.345l2.368,6.157c0.468,1.21,0.758,1.497,1.511,1.535V40.914z
		 M257.448,34.234l-1.082,3.085h2.274L257.448,34.234z"/>
	<g>
		<path fill="#FFFFFF" d="M94.48,58.689c-0.073,0.325-0.104,0.562,0.06,0.562c0.163,0,0.713-0.503,1.025-0.877v0.492
			c-0.758,0.802-1.561,1.427-2.125,1.427c-0.387,0-0.595-0.327-0.595-0.892c0-0.269,0-0.402,0.104-0.937h-0.03
			c-0.937,0.966-1.783,1.828-2.229,1.828c-0.342,0-1.025-0.416-1.025-1.441c0-0.967,0.342-2.185,1.62-3.463
			c1.218-1.203,2.259-1.486,4.176-1.486L94.48,58.689z M93.678,54.811c-0.758,0-1.249,0.223-1.709,0.683
			c-0.505,0.505-0.92,1.561-0.92,2.408c0,0.609,0.237,1.023,0.609,1.023c0.342,0,0.802-0.459,1.412-1.083L93.678,54.811z"/>
		<path fill="#FFFFFF" d="M99.197,58.925c-0.061,0.271,0.074,0.478,0.268,0.478s0.713-0.388,1.144-0.876l0.268,0.279
			c-0.774,0.879-1.784,1.488-2.512,1.488c-0.551,0-0.937-0.432-0.773-1.265l0.877-4.294h-0.728l0.06-0.327
			c0.98-0.326,1.812-1.113,2.689-2.333h0.387c-0.283,0.596-0.477,1.174-0.684,1.976h1.173l-0.134,0.685h-1.174L99.197,58.925z"/>
	</g>
	<g>
		<path fill="#FFFFFF" d="M117.748,57.579c-0.104,0.742-0.417,1.704-0.795,2.59l-0.039,0.092c-0.116-0.04-0.248-0.065-0.377-0.078
			c-0.117-0.026-0.26-0.026-0.417-0.026c-0.351,0-0.729,0.039-1.133,0.092c-0.39,0.039-0.806,0.091-1.262,0.091
			c-1.744,0-2.942-0.586-3.684-1.393c-0.742-0.808-1.067-1.822-1.067-2.723c0-1.3,0.521-2.381,1.433-3.175
			c0.897-0.782,2.186-1.225,3.696-1.225c1.393,0,2.162,0.392,2.486,0.392c0.118,0,0.182-0.052,0.235-0.183h0.482l0.117,2.721h-0.612
			c-0.144-0.663-0.469-1.21-0.924-1.589c-0.456-0.377-1.028-0.584-1.679-0.584c-1.732,0-2.917,1.418-2.917,3.436
			c0,2.122,1.237,3.566,3.06,3.566c1.224,0,2.161-0.664,2.785-2.004H117.748z"/>
		<path fill="#FFFFFF" d="M127.96,55.561v-1.625c0-1.029-0.208-1.265-1.093-1.29v-0.612h4.412v0.612
			c-0.948,0.025-1.131,0.261-1.131,1.119v4.466c0,0.909,0.104,1.273,1.131,1.288v0.612h-4.412v-0.612
			c0.846-0.038,1.093-0.246,1.093-1.262v-1.889h-3.906v1.926c0,0.795,0.092,1.199,1.133,1.225v0.612h-4.464v-0.612
			c0.897-0.038,1.146-0.195,1.146-1.262v-4.363c0-1.04-0.287-1.248-1.146-1.248v-0.612h4.464v0.612
			c-0.872,0.053-1.133,0.169-1.133,1.235v1.68H127.96z"/>
	</g>
	<g>
		<path fill="#FFFFFF" d="M143.062,60.131h-4.725v-0.612c0.886,0,1.198-0.104,1.198-0.442c0-0.169-0.092-0.483-0.274-0.964
			l-0.299-0.768h-2.864l-0.235,0.69c-0.181,0.531-0.286,0.896-0.286,1.001c0,0.353,0.431,0.482,1.146,0.482v0.612h-3.346v-0.612
			c0.963,0,1.08-0.221,1.55-1.575l2.032-5.831l-0.119-0.288h2.343l2.37,6.158c0.468,1.212,0.755,1.498,1.509,1.536V60.131z
			 M137.465,53.452l-1.08,3.086h2.279L137.465,53.452z"/>
		<path fill="#FFFFFF" d="M146.496,54.259c0-1.393-0.055-1.549-1.159-1.613v-0.612c0.717-0.038,1.679-0.104,2.563-0.142
			c0.871-0.04,1.6-0.067,1.798-0.067c2.198,0,3.644,0.886,3.644,2.527c0,1.106-0.755,2.55-3.239,2.55
			c-0.416,0-1.044-0.064-1.42-0.143v1.73c0,0.768,0.233,1.029,1.471,1.029v0.612h-4.816v-0.612c0.925,0,1.159-0.262,1.159-1.262
			V54.259z M148.682,56.121c0.207,0.053,0.402,0.065,0.611,0.065c1.081,0,1.731-0.716,1.731-1.901c0-1.145-0.613-1.835-1.614-1.835
			c-0.261,0-0.521,0.026-0.729,0.092V56.121z"/>
	</g>
	<g>
		<path fill="#FFFFFF" d="M163.481,52.033l0.117,1.939h-0.612c-0.119-0.885-0.311-1.132-0.949-1.132h-2.552v2.837h1.677
			c0.929,0,1.172-0.195,1.172-0.988h0.614v2.719h-0.614c0-0.728-0.206-0.922-1.155-0.922h-1.693v2.095
			c0,0.691,0.077,0.742,0.78,0.742h1.51c1.136,0,1.432-0.495,1.628-1.355h0.611l-0.169,2.163h-7.941v-0.612
			c1.184,0,1.394-0.274,1.394-1.197v-4.479c0-1.107-0.378-1.197-1.302-1.197v-0.612H163.481z"/>
		<path fill="#FFFFFF" d="M172.007,52.033v0.612c-1.107,0-1.328,0.208-1.328,1.235v4.517c0,0.797,0.09,0.926,0.965,0.926h0.988
			c0.793,0,1.066-0.025,2.161-1.549h0.61l-0.989,2.356h-7.195v-0.612c1.13,0,1.275-0.337,1.275-1.262v-4.376
			c0-0.937-0.146-1.235-1.275-1.235v-0.612H172.007z"/>
	</g>
	<g>
		<path fill="#FFFFFF" d="M190.336,55.561v-1.625c0-1.029-0.209-1.265-1.093-1.29v-0.612h4.412v0.612
			c-0.952,0.025-1.133,0.261-1.133,1.119v4.466c0,0.909,0.104,1.273,1.133,1.288v0.612h-4.412v-0.612
			c0.846-0.038,1.093-0.246,1.093-1.262v-1.889h-3.904v1.926c0,0.795,0.088,1.199,1.131,1.225v0.612h-4.465v-0.612
			c0.9-0.038,1.146-0.195,1.146-1.262v-4.363c0-1.04-0.287-1.248-1.146-1.248v-0.612h4.465v0.612
			c-0.871,0.053-1.131,0.169-1.131,1.235v1.68H190.336z"/>
		<path fill="#FFFFFF" d="M197.163,60.131v-0.612c0.924,0,1.119-0.337,1.119-1.173v-4.452c0-0.91-0.182-1.248-1.119-1.248v-0.612
			h4.493v0.612c-1.044,0-1.187,0.338-1.187,1.248v4.375c0,0.808,0.08,1.25,1.187,1.25v0.612H197.163z"/>
	</g>
	<g>
		<path fill="#FFFFFF" d="M209.488,52.033v0.612c-1.105,0-1.326,0.208-1.326,1.235v4.517c0,0.797,0.091,0.926,0.962,0.926h0.992
			c0.792,0,1.066-0.025,2.159-1.549h0.611l-0.99,2.356h-7.197v-0.612c1.133,0,1.275-0.337,1.275-1.262v-4.376
			c0-0.937-0.143-1.235-1.275-1.235v-0.612H209.488z"/>
		<path fill="#FFFFFF" d="M219.203,52.033v0.612c-1.109,0-1.33,0.208-1.33,1.235v4.517c0,0.797,0.093,0.926,0.964,0.926h0.988
			c0.795,0,1.066-0.025,2.162-1.549h0.611l-0.987,2.356h-7.2v-0.612c1.132,0,1.274-0.337,1.274-1.262v-4.376
			c0-0.937-0.143-1.235-1.274-1.235v-0.612H219.203z"/>
	</g>
</g>
</svg>
